<?xml version="1.0" standalone="no"?>
<svg viewBox="0 0 200 200" xmlns="http://www.w3.org/2000/svg">
  <path fill="#F2789F" d="M41.3,-65.7C54.4,-64.1,66.2,-54.6,74.9,-42.3C83.5,-30.1,88.8,-15,85.2,-2.1C81.6,10.9,69.1,21.8,60.1,33.4C51.1,45,45.6,57.3,36.2,60.9C26.8,64.6,13.4,59.7,-0.8,61C-14.9,62.4,-29.9,70,-39.6,66.5C-49.2,62.9,-53.6,48.2,-57.9,35.3C-62.2,22.3,-66.4,11.2,-68.7,-1.3C-71.1,-13.9,-71.6,-27.7,-67.2,-40.5C-62.8,-53.3,-53.5,-65,-41.5,-67.2C-29.5,-69.4,-14.8,-62,-0.3,-61.5C14.2,-61,28.3,-67.3,41.3,-65.7Z" transform="translate(100 100)" />
</svg>
