<?xml version="1.0" standalone="no"?><svg xmlns:xlink="http://www.w3.org/1999/xlink" xmlns="http://www.w3.org/2000/svg" viewBox="0 0 1000 1749.9992494543533" preserveAspectRatio="xMaxYMax slice"><g transform="scale(3.0021825867405605)"><rect x="0" y="0" width="333.091" height="582.90925" fill="#000000"/><rect x="0" y="0" width="83.27275" height="83.27275" fill="#000000"/><rect x="0" y="0" width="41.64" height="41.64" fill="#000000"/><g transform="translate(0,0) scale(2.082) rotate(0)"><rect width="20" height="2" fill="#212121"/><rect y="4" width="20" height="2" fill="#212121"/><rect y="8" width="20" height="2" fill="#212121"/><rect y="12" width="20" height="2" fill="#212121"/><rect y="16" width="20" height="2" fill="#212121"/></g><rect x="41.64" y="0" width="41.64" height="41.64" fill="#2d2d2d"/><path d="M 41.64 41.64 A 41.64 41.64 0 0 1  83.28 0 L 41.64 41.64 A 41.64 41.64 0 0 0 83.28 0" fill="#000000"/><rect x="0" y="41.64" width="41.64" height="41.64" fill="#0d0d0d"/><g transform="translate(0,41.64) scale(2.082) rotate(0)"><path d="M10 5L5 0L0 5L5 10L0 15L5 20L10 15L15 20L20 15L15 10L20 5L15 0L10 5Z" fill="#262626"/></g><rect x="41.64" y="41.64" width="41.64" height="41.64" fill="#4c4c4c"/><circle cx="62.46" cy="62.46" r="20.82" fill="#000000"/><rect x="83.27275" y="0" width="83.27275" height="83.27275" fill="#000000"/><rect x="83.27" y="0" width="41.64" height="41.64" fill="#000000"/><path d="M 83.27 0 A 41.64 41.64 0 0 0 124.91 41.64 L 124.91 0" fill="#080808"/><rect x="124.91" y="0" width="41.64" height="41.64" fill="#000000"/><g transform="translate(124.91,0) scale(2.082) rotate(0)"><rect width="2" height="20" fill="#000000"/><rect x="4" width="2" height="20" fill="#000000"/><rect x="8" width="2" height="20" fill="#000000"/><rect x="12" width="2" height="20" fill="#000000"/><rect x="16" width="2" height="20" fill="#000000"/></g><rect x="83.27" y="41.64" width="41.64" height="41.64" fill="#000000"/><g transform="translate(83.27,41.64) scale(2.082) rotate(0)"><path d="M10 0H20V10L10 20H0V10L10 0Z" fill="#000000"/></g><rect x="124.91" y="41.64" width="41.64" height="41.64" fill="#444444"/><g transform="translate(124.91,41.64) scale(2.082) rotate(0)"><path d="M10 1L12.2451 7.90983H19.5106L13.6327 12.1803L15.8779 19.0902L10 14.8197L4.12215 19.0902L6.36729 12.1803L0.489441 7.90983H7.75487L10 1Z" fill="#060606"/></g><rect x="166.5455" y="0" width="83.27275" height="83.27275" fill="#000000"/><rect x="166.55" y="0" width="41.64" height="41.64" fill="#000000"/><g transform="translate(166.55,0) scale(2.082) rotate(0)"><path d="M10 0L20 10L10 20L0 10L10 0Z" fill="#4e4e4e"/></g><rect x="208.18" y="0" width="41.64" height="41.64" fill="#2a2a2a"/><g transform="translate(208.18,0) scale(2.082) rotate(0)"><path d="M10 0H20L0 20V10L10 0Z" fill="#0f0f0f"/><path d="M20 10V20H10L20 10Z" fill="#0f0f0f"/></g><rect x="166.55" y="41.64" width="41.64" height="41.64" fill="#000000"/><g transform="translate(166.55,41.64) scale(2.082) rotate(0)"><rect width="2" height="20" fill="#000000"/><rect x="4" width="2" height="20" fill="#000000"/><rect x="8" width="2" height="20" fill="#000000"/><rect x="12" width="2" height="20" fill="#000000"/><rect x="16" width="2" height="20" fill="#000000"/></g><rect x="208.18" y="41.64" width="41.64" height="41.64" fill="#000000"/><g transform="translate(208.18,41.64) scale(2.082) rotate(0)"><path d="M10 0L20 10L10 20L0 10L10 0Z" fill="#3a3a3a"/></g><rect x="249.81825" y="0" width="83.27275" height="83.27275" fill="#000000"/><rect x="249.82" y="0" width="41.64" height="41.64" fill="#000000"/><rect x="249.82" y="0" width="41.64" height="41.64" fill="#323232"/><rect x="291.45" y="0" width="41.64" height="41.64" fill="#000000"/><rect x="291.45" y="0" width="41.64" height="41.64" fill="#161616"/><rect x="249.82" y="41.64" width="41.64" height="41.64" fill="#0e0e0e"/><g transform="translate(249.82,41.64) scale(2.082) rotate(0)"><path d="M5 0H10L5 5L0 10V5L5 0Z" fill="#3f3f3f"/><path d="M20 15V20H15L20 15Z" fill="#3f3f3f"/><path d="M20 5V10L15 15L10 20H5L20 5Z" fill="#3f3f3f"/><path d="M15 0H20L5 15.0002L0 20.0002V15.0002L15 0Z" fill="#3f3f3f"/></g><rect x="291.45" y="41.64" width="41.64" height="41.64" fill="#000000"/><g transform="translate(291.45,41.64) scale(2.082) rotate(0)"><path d="M5 0H10L5 5L0 10V5L5 0Z" fill="#3e3e3e"/><path d="M20 15V20H15L20 15Z" fill="#3e3e3e"/><path d="M20 5V10L15 15L10 20H5L20 5Z" fill="#3e3e3e"/><path d="M15 0H20L5 15.0002L0 20.0002V15.0002L15 0Z" fill="#3e3e3e"/></g><rect x="0" y="83.27275" width="83.27275" height="83.27275" fill="#000000"/><rect x="0" y="83.27" width="41.64" height="41.64" fill="#000000"/><g transform="translate(0,83.27) scale(2.082) rotate(0)"><rect width="20" height="10" fill="#000000"/></g><rect x="41.64" y="83.27" width="41.64" height="41.64" fill="#2c2c2c"/><path d="M 41.64 83.27 A 41.64 41.64 0 0 1  83.28 124.91 L 41.64 83.27 A 41.64 41.64 0 0 0 83.28 124.91" fill="#000000"/><rect x="0" y="124.91" width="41.64" height="41.64" fill="#000000"/><path d="M 0 124.91 A 41.64 41.64 0 0 1 41.64 166.55 L 0 166.55" fill="#4e4e4e"/><rect x="41.64" y="124.91" width="41.64" height="41.64" fill="#000000"/><path d="M 41.64 124.91 A 41.64 41.64 0 0 1  83.28 166.55 L 41.64 124.91 A 41.64 41.64 0 0 0 83.28 166.55" fill="#252525"/><rect x="83.27275" y="83.27275" width="83.27275" height="83.27275" fill="#000000"/><rect x="83.27" y="83.27" width="41.64" height="41.64" fill="#232323"/><polygon points="83.27,83.27 124.91,124.91 83.27,124.91" fill="#000000"/><rect x="124.91" y="83.27" width="41.64" height="41.64" fill="#414141"/><g transform="translate(124.91,83.27) scale(2.082) rotate(0)"><path d="M10 0H20V10L10 20H0V10L10 0Z" fill="#151515"/></g><rect x="83.27" y="124.91" width="41.64" height="41.64" fill="#000000"/><path d="M 83.27 124.91 A 41.64 41.64 0 0 1  124.91 166.55 L 83.27 124.91 A 41.64 41.64 0 0 0 124.91 166.55" fill="#4d4d4d"/><rect x="124.91" y="124.91" width="41.64" height="41.64" fill="#1b1b1b"/><g transform="translate(124.91,124.91) scale(2.082) rotate(0)"><path d="M10 0H20V10L10 20H0V10L10 0Z" fill="#1b1b1b"/></g><rect x="166.5455" y="83.27275" width="83.27275" height="83.27275" fill="#000000"/><rect x="166.55" y="83.27" width="41.64" height="41.64" fill="#242424"/><g transform="translate(166.55,83.27) scale(2.082) rotate(0)"><rect width="20" height="10" fill="#000000"/></g><rect x="208.18" y="83.27" width="41.64" height="41.64" fill="#000000"/><g transform="translate(208.18,83.27) scale(2.082) rotate(0)"><path d="M13 0H20V7L7 20H0V13L13 0Z" fill="#141414"/></g><rect x="166.55" y="124.91" width="41.64" height="41.64" fill="#000000"/><rect x="166.55" y="124.91" width="41.64" height="41.64" fill="#1c1c1c"/><rect x="208.18" y="124.91" width="41.64" height="41.64" fill="#000000"/><g transform="translate(208.18,124.91) scale(2.082) rotate(0)"><path d="M10 5L5 0L0 5L5 10L0 15L5 20L10 15L15 20L20 15L15 10L20 5L15 0L10 5Z" fill="#000000"/></g><rect x="249.81825" y="83.27275" width="83.27275" height="83.27275" fill="#000000"/><rect x="249.82" y="83.27" width="41.64" height="41.64" fill="#2e2e2e"/><polygon points="291.46,83.27 291.46,124.91 249.82,124.91" fill="#000000"/><rect x="291.45" y="83.27" width="41.64" height="41.64" fill="#484848"/><g transform="translate(291.45,83.27) scale(2.082) rotate(0)"><path d="M10 1L12.2451 7.90983H19.5106L13.6327 12.1803L15.8779 19.0902L10 14.8197L4.12215 19.0902L6.36729 12.1803L0.489441 7.90983H7.75487L10 1Z" fill="#000000"/></g><rect x="249.82" y="124.91" width="41.64" height="41.64" fill="#000000"/><g transform="translate(249.82,124.91) scale(2.082) rotate(0)"><path d="M5 0H10L5 5L0 10V5L5 0Z" fill="#181818"/><path d="M20 15V20H15L20 15Z" fill="#181818"/><path d="M20 5V10L15 15L10 20H5L20 5Z" fill="#181818"/><path d="M15 0H20L5 15.0002L0 20.0002V15.0002L15 0Z" fill="#181818"/></g><rect x="291.45" y="124.91" width="41.64" height="41.64" fill="#000000"/><g transform="translate(291.45,124.91) scale(2.082) rotate(0)"><path d="M10 0L20 10L10 20L0 10L10 0Z" fill="#000000"/></g><rect x="0" y="166.5455" width="83.27275" height="83.27275" fill="#000000"/><rect x="0" y="166.55" width="41.64" height="41.64" fill="#444444"/><g transform="translate(0,166.55) scale(2.082) rotate(0)"><rect width="2" height="20" fill="#1b1b1b"/><rect x="4" width="2" height="20" fill="#1b1b1b"/><rect x="8" width="2" height="20" fill="#1b1b1b"/><rect x="12" width="2" height="20" fill="#1b1b1b"/><rect x="16" width="2" height="20" fill="#1b1b1b"/></g><rect x="41.64" y="166.55" width="41.64" height="41.64" fill="#000000"/><g transform="translate(41.64,166.55) scale(2.082) rotate(0)"><rect width="2" height="20" fill="#242424"/><rect x="4" width="2" height="20" fill="#242424"/><rect x="8" width="2" height="20" fill="#242424"/><rect x="12" width="2" height="20" fill="#242424"/><rect x="16" width="2" height="20" fill="#242424"/></g><rect x="0" y="208.18" width="41.64" height="41.64" fill="#000000"/><path d="M 0 249.82 A 41.64 41.64 0 0 1  41.64 208.18 L 0 249.82 A 41.64 41.64 0 0 0 41.64 208.18" fill="#0b0b0b"/><rect x="41.64" y="208.18" width="41.64" height="41.64" fill="#0c0c0c"/><rect x="41.64" y="208.18" width="41.64" height="41.64" fill="#202020"/><rect x="83.27275" y="166.5455" width="83.27275" height="83.27275" fill="#000000"/><rect x="83.27" y="166.55" width="41.64" height="41.64" fill="#505050"/><polygon points="83.27,166.55 124.91,208.19 83.27,208.19" fill="#303030"/><rect x="124.91" y="166.55" width="41.64" height="41.64" fill="#000000"/><g transform="translate(124.91,166.55) scale(2.082) rotate(0)"><path d="M10 0L20 10L10 20L0 10L10 0Z" fill="#282828"/></g><rect x="83.27" y="208.18" width="41.64" height="41.64" fill="#070707"/><rect x="83.27" y="208.18" width="41.64" height="41.64" fill="#2b2b2b"/><rect x="124.91" y="208.18" width="41.64" height="41.64" fill="#000000"/><g transform="translate(124.91,208.18) scale(2.082) rotate(0)"><path d="M10 1L12.2451 7.90983H19.5106L13.6327 12.1803L15.8779 19.0902L10 14.8197L4.12215 19.0902L6.36729 12.1803L0.489441 7.90983H7.75487L10 1Z" fill="#3e3e3e"/></g><rect x="166.5455" y="166.5455" width="83.27275" height="83.27275" fill="#000000"/><rect x="166.55" y="166.55" width="41.64" height="41.64" fill="#000000"/><circle cx="187.37" cy="187.37" r="20.82" fill="#000000"/><rect x="208.18" y="166.55" width="41.64" height="41.64" fill="#333333"/><g transform="translate(208.18,166.55) scale(2.082) rotate(0)"><path fill-rule="evenodd" clip-rule="evenodd" d="M10 20C15.5228 20 20 15.5228 20 10C20 4.47715 15.5228 0 10 0C4.47715 0 0 4.47715 0 10C0 15.5228 4.47715 20 10 20ZM10 17C13.866 17 17 13.866 17 10C17 6.13401 13.866 3 10 3C6.13401 3 3 6.13401 3 10C3 13.866 6.13401 17 10 17Z" fill="#454545"/></g><rect x="166.55" y="208.18" width="41.64" height="41.64" fill="#141414"/><g transform="translate(166.55,208.18) scale(2.082) rotate(0)"><path d="M10 0L20 10L10 20L0 10L10 0Z" fill="#000000"/></g><rect x="208.18" y="208.18" width="41.64" height="41.64" fill="#0b0b0b"/><g transform="translate(208.18,208.18) scale(2.082) rotate(0)"><path d="M10 0H20V10L10 20H0V10L10 0Z" fill="#070707"/></g><rect x="249.81825" y="166.5455" width="83.27275" height="83.27275" fill="#000000"/><rect x="249.82" y="166.55" width="41.64" height="41.64" fill="#101010"/><g transform="translate(249.82,166.55) scale(2.082) rotate(0)"><rect width="20" height="2" fill="#000000"/><rect y="4" width="20" height="2" fill="#000000"/><rect y="8" width="20" height="2" fill="#000000"/><rect y="12" width="20" height="2" fill="#000000"/><rect y="16" width="20" height="2" fill="#000000"/></g><rect x="291.45" y="166.55" width="41.64" height="41.64" fill="#121212"/><g transform="translate(291.45,166.55) scale(2.082) rotate(0)"><path d="M10 0H20V10L10 20H0V10L10 0Z" fill="#000000"/></g><rect x="249.82" y="208.18" width="41.64" height="41.64" fill="#000000"/><polygon points="249.82,208.18 291.46,208.18 291.46,249.82" fill="#000000"/><rect x="291.45" y="208.18" width="41.64" height="41.64" fill="#383838"/><g transform="translate(291.45,208.18) scale(2.082) rotate(0)"><path d="M13 0H20V7L7 20H0V13L13 0Z" fill="#4d4d4d"/></g><rect x="0" y="249.81825" width="83.27275" height="83.27275" fill="#000000"/><rect x="0" y="249.82" width="41.64" height="41.64" fill="#000000"/><g transform="translate(0,249.82) scale(2.082) rotate(0)"><path d="M10 5L5 0L0 5L5 10L0 15L5 20L10 15L15 20L20 15L15 10L20 5L15 0L10 5Z" fill="#000000"/></g><rect x="41.64" y="249.82" width="41.64" height="41.64" fill="#141414"/><g transform="translate(41.64,249.82) scale(2.082) rotate(0)"><path d="M5 0H10L5 5L0 10V5L5 0Z" fill="#2f2f2f"/><path d="M20 15V20H15L20 15Z" fill="#2f2f2f"/><path d="M20 5V10L15 15L10 20H5L20 5Z" fill="#2f2f2f"/><path d="M15 0H20L5 15.0002L0 20.0002V15.0002L15 0Z" fill="#2f2f2f"/></g><rect x="0" y="291.45" width="41.64" height="41.64" fill="#000000"/><path d="M 0 333.09 A 41.64 41.64 0 0 1  41.64 291.45 L 0 333.09 A 41.64 41.64 0 0 0 41.64 291.45" fill="#4f4f4f"/><rect x="41.64" y="291.45" width="41.64" height="41.64" fill="#0c0c0c"/><g transform="translate(41.64,291.45) scale(2.082) rotate(0)"><path d="M13 0H20V7L7 20H0V13L13 0Z" fill="#2c2c2c"/></g><rect x="83.27275" y="249.81825" width="83.27275" height="83.27275" fill="#000000"/><rect x="83.27" y="249.82" width="41.64" height="41.64" fill="#252525"/><g transform="translate(83.27,249.82) scale(2.082) rotate(0)"><path d="M10 0H20L0 20V10L10 0Z" fill="#000000"/><path d="M20 10V20H10L20 10Z" fill="#000000"/></g><rect x="124.91" y="249.82" width="41.64" height="41.64" fill="#000000"/><polygon points="124.91,249.82 166.55,291.46 124.91,291.46" fill="#000000"/><rect x="83.27" y="291.45" width="41.64" height="41.64" fill="#272727"/><g transform="translate(83.27,291.45) scale(2.082) rotate(0)"><rect width="20" height="2" fill="#3f3f3f"/><rect y="4" width="20" height="2" fill="#3f3f3f"/><rect y="8" width="20" height="2" fill="#3f3f3f"/><rect y="12" width="20" height="2" fill="#3f3f3f"/><rect y="16" width="20" height="2" fill="#3f3f3f"/></g><rect x="124.91" y="291.45" width="41.64" height="41.64" fill="#0e0e0e"/><path d="M 124.91 291.45 A 41.64 41.64 0 0 1  166.55 333.09 L 124.91 291.45 A 41.64 41.64 0 0 0 166.55 333.09" fill="#323232"/><rect x="166.5455" y="249.81825" width="83.27275" height="83.27275" fill="#000000"/><rect x="166.55" y="249.82" width="41.64" height="41.64" fill="#515151"/><g transform="translate(166.55,249.82) scale(2.082) rotate(0)"><path d="M10 0H20L0 20V10L10 0Z" fill="#292929"/><path d="M20 10V20H10L20 10Z" fill="#292929"/></g><rect x="208.18" y="249.82" width="41.64" height="41.64" fill="#282828"/><g transform="translate(208.18,249.82) scale(2.082) rotate(0)"><path d="M19.9981 0.00193429L3.72652 -7.68637e-07L8.4784 4.75382L0 13.2345L6.76585 20L15.2462 11.5208L20 16.2746L19.9981 0.00193429Z" fill="#0b0b0b"/></g><rect x="166.55" y="291.45" width="41.64" height="41.64" fill="#171717"/><rect x="166.55" y="291.45" width="41.64" height="41.64" fill="#242424"/><rect x="208.18" y="291.45" width="41.64" height="41.64" fill="#3c3c3c"/><g transform="translate(208.18,291.45) scale(2.082) rotate(0)"><rect width="20" height="2" fill="#000000"/><rect y="4" width="20" height="2" fill="#000000"/><rect y="8" width="20" height="2" fill="#000000"/><rect y="12" width="20" height="2" fill="#000000"/><rect y="16" width="20" height="2" fill="#000000"/></g><rect x="249.81825" y="249.81825" width="83.27275" height="83.27275" fill="#000000"/><rect x="249.82" y="249.82" width="41.64" height="41.64" fill="#000000"/><circle cx="270.64" cy="270.64" r="20.82" fill="#454545"/><rect x="291.45" y="249.82" width="41.64" height="41.64" fill="#060606"/><g transform="translate(291.45,249.82) scale(2.082) rotate(0)"><path d="M19.9981 0.00193429L3.72652 -7.68637e-07L8.4784 4.75382L0 13.2345L6.76585 20L15.2462 11.5208L20 16.2746L19.9981 0.00193429Z" fill="#393939"/></g><rect x="249.82" y="291.45" width="41.64" height="41.64" fill="#000000"/><path d="M 249.82 333.09 A 41.64 41.64 0 0 1  291.46 291.45 L 249.82 333.09 A 41.64 41.64 0 0 0 291.46 291.45" fill="#2a2a2a"/><rect x="291.45" y="291.45" width="41.64" height="41.64" fill="#232323"/><circle cx="312.27" cy="312.27" r="20.82" fill="#000000"/><rect x="0" y="333.091" width="83.27275" height="83.27275" fill="#000000"/><rect x="0" y="333.09" width="41.64" height="41.64" fill="#000000"/><g transform="translate(0,333.09) scale(2.082) rotate(0)"><path fill-rule="evenodd" clip-rule="evenodd" d="M10 20C15.5228 20 20 15.5228 20 10C20 4.47715 15.5228 0 10 0C4.47715 0 0 4.47715 0 10C0 15.5228 4.47715 20 10 20ZM10 17C13.866 17 17 13.866 17 10C17 6.13401 13.866 3 10 3C6.13401 3 3 6.13401 3 10C3 13.866 6.13401 17 10 17Z" fill="#262626"/></g><rect x="41.64" y="333.09" width="41.64" height="41.64" fill="#000000"/><g transform="translate(41.64,333.09) scale(2.082) rotate(0)"><rect width="20" height="10" fill="#101010"/></g><rect x="0" y="374.73" width="41.64" height="41.64" fill="#484848"/><g transform="translate(0,374.73) scale(2.082) rotate(0)"><rect width="2" height="20" fill="#353535"/><rect x="4" width="2" height="20" fill="#353535"/><rect x="8" width="2" height="20" fill="#353535"/><rect x="12" width="2" height="20" fill="#353535"/><rect x="16" width="2" height="20" fill="#353535"/></g><rect x="41.64" y="374.73" width="41.64" height="41.64" fill="#4f4f4f"/><g transform="translate(41.64,374.73) scale(2.082) rotate(0)"><path d="M10 0L20 10L10 20L0 10L10 0Z" fill="#010101"/></g><rect x="83.27275" y="333.091" width="83.27275" height="83.27275" fill="#000000"/><rect x="83.27" y="333.09" width="41.64" height="41.64" fill="#000000"/><path d="M 83.27 374.72999999999996 A 41.64 41.64 0 0 1  124.91 333.09 L 83.27 374.72999999999996 A 41.64 41.64 0 0 0 124.91 333.09" fill="#000000"/><rect x="124.91" y="333.09" width="41.64" height="41.64" fill="#414141"/><path d="M 124.91 333.09 A 41.64 41.64 0 0 1  166.55 374.72999999999996 L 124.91 333.09 A 41.64 41.64 0 0 0 166.55 374.72999999999996" fill="#050505"/><rect x="83.27" y="374.73" width="41.64" height="41.64" fill="#363636"/><g transform="translate(83.27,374.73) scale(2.082) rotate(0)"><path d="M5 0H10L5 5L0 10V5L5 0Z" fill="#282828"/><path d="M20 15V20H15L20 15Z" fill="#282828"/><path d="M20 5V10L15 15L10 20H5L20 5Z" fill="#282828"/><path d="M15 0H20L5 15.0002L0 20.0002V15.0002L15 0Z" fill="#282828"/></g><rect x="124.91" y="374.73" width="41.64" height="41.64" fill="#000000"/><g transform="translate(124.91,374.73) scale(2.082) rotate(0)"><rect width="2" height="20" fill="#2f2f2f"/><rect x="4" width="2" height="20" fill="#2f2f2f"/><rect x="8" width="2" height="20" fill="#2f2f2f"/><rect x="12" width="2" height="20" fill="#2f2f2f"/><rect x="16" width="2" height="20" fill="#2f2f2f"/></g><rect x="166.5455" y="333.091" width="83.27275" height="83.27275" fill="#000000"/><rect x="166.55" y="333.09" width="41.64" height="41.64" fill="#2f2f2f"/><path d="M 166.55 374.72999999999996 A 41.64 41.64 0 0 1  208.19 333.09 L 166.55 374.72999999999996 A 41.64 41.64 0 0 0 208.19 333.09" fill="#000000"/><rect x="208.18" y="333.09" width="41.64" height="41.64" fill="#000000"/><rect x="208.18" y="333.09" width="41.64" height="41.64" fill="#000000"/><rect x="166.55" y="374.73" width="41.64" height="41.64" fill="#000000"/><g transform="translate(166.55,374.73) scale(2.082) rotate(0)"><rect width="20" height="10" fill="#000000"/></g><rect x="208.18" y="374.73" width="41.64" height="41.64" fill="#000000"/><g transform="translate(208.18,374.73) scale(2.082) rotate(0)"><path d="M10 5L5 0L0 5L5 10L0 15L5 20L10 15L15 20L20 15L15 10L20 5L15 0L10 5Z" fill="#424242"/></g><rect x="249.81825" y="333.091" width="83.27275" height="83.27275" fill="#000000"/><rect x="249.82" y="333.09" width="41.64" height="41.64" fill="#1f1f1f"/><g transform="translate(249.82,333.09) scale(2.082) rotate(0)"><rect width="20" height="10" fill="#000000"/></g><rect x="291.45" y="333.09" width="41.64" height="41.64" fill="#121212"/><g transform="translate(291.45,333.09) scale(2.082) rotate(0)"><path d="M10 0H20L0 20V10L10 0Z" fill="#000000"/><path d="M20 10V20H10L20 10Z" fill="#000000"/></g><rect x="249.82" y="374.73" width="41.64" height="41.64" fill="#000000"/><polygon points="249.82,374.73 291.46,416.37 249.82,416.37" fill="#333333"/><rect x="291.45" y="374.73" width="41.64" height="41.64" fill="#000000"/><path d="M 291.45 416.37 A 41.64 41.64 0 0 1  333.09 374.73 L 291.45 416.37 A 41.64 41.64 0 0 0 333.09 374.73" fill="#000000"/><rect x="0" y="416.36375" width="83.27275" height="83.27275" fill="#000000"/><rect x="0" y="416.36" width="41.64" height="41.64" fill="#000000"/><g transform="translate(0,416.36) scale(2.082) rotate(0)"><rect width="2" height="20" fill="#515151"/><rect x="4" width="2" height="20" fill="#515151"/><rect x="8" width="2" height="20" fill="#515151"/><rect x="12" width="2" height="20" fill="#515151"/><rect x="16" width="2" height="20" fill="#515151"/></g><rect x="41.64" y="416.36" width="41.64" height="41.64" fill="#000000"/><g transform="translate(41.64,416.36) scale(2.082) rotate(0)"><path fill-rule="evenodd" clip-rule="evenodd" d="M10 20C15.5228 20 20 15.5228 20 10C20 4.47715 15.5228 0 10 0C4.47715 0 0 4.47715 0 10C0 15.5228 4.47715 20 10 20ZM10 17C13.866 17 17 13.866 17 10C17 6.13401 13.866 3 10 3C6.13401 3 3 6.13401 3 10C3 13.866 6.13401 17 10 17Z" fill="#000000"/></g><rect x="0" y="458" width="41.64" height="41.64" fill="#0c0c0c"/><path d="M 0 458 A 41.64 41.64 0 0 1 41.64 499.64 L 0 499.64" fill="#000000"/><rect x="41.64" y="458" width="41.64" height="41.64" fill="#434343"/><rect x="41.64" y="458" width="41.64" height="41.64" fill="#000000"/><rect x="83.27275" y="416.36375" width="83.27275" height="83.27275" fill="#000000"/><rect x="83.27" y="416.36" width="41.64" height="41.64" fill="#2b2b2b"/><g transform="translate(83.27,416.36) scale(2.082) rotate(0)"><path d="M5 0H10L5 5L0 10V5L5 0Z" fill="#000000"/><path d="M20 15V20H15L20 15Z" fill="#000000"/><path d="M20 5V10L15 15L10 20H5L20 5Z" fill="#000000"/><path d="M15 0H20L5 15.0002L0 20.0002V15.0002L15 0Z" fill="#000000"/></g><rect x="124.91" y="416.36" width="41.64" height="41.64" fill="#000000"/><path d="M 124.91 416.36 A 41.64 41.64 0 0 1  166.55 458 L 124.91 416.36 A 41.64 41.64 0 0 0 166.55 458" fill="#000000"/><rect x="83.27" y="458" width="41.64" height="41.64" fill="#292929"/><g transform="translate(83.27,458) scale(2.082) rotate(0)"><rect width="20" height="2" fill="#000000"/><rect y="4" width="20" height="2" fill="#000000"/><rect y="8" width="20" height="2" fill="#000000"/><rect y="12" width="20" height="2" fill="#000000"/><rect y="16" width="20" height="2" fill="#000000"/></g><rect x="124.91" y="458" width="41.64" height="41.64" fill="#444444"/><g transform="translate(124.91,458) scale(2.082) rotate(0)"><rect width="2" height="20" fill="#000000"/><rect x="4" width="2" height="20" fill="#000000"/><rect x="8" width="2" height="20" fill="#000000"/><rect x="12" width="2" height="20" fill="#000000"/><rect x="16" width="2" height="20" fill="#000000"/></g><rect x="166.5455" y="416.36375" width="83.27275" height="83.27275" fill="#000000"/><rect x="166.55" y="416.36" width="41.64" height="41.64" fill="#222222"/><polygon points="208.19,416.36 208.19,458 166.55,458" fill="#000000"/><rect x="208.18" y="416.36" width="41.64" height="41.64" fill="#000000"/><g transform="translate(208.18,416.36) scale(2.082) rotate(0)"><path d="M5 0H10L5 5L0 10V5L5 0Z" fill="#020202"/><path d="M20 15V20H15L20 15Z" fill="#020202"/><path d="M20 5V10L15 15L10 20H5L20 5Z" fill="#020202"/><path d="M15 0H20L5 15.0002L0 20.0002V15.0002L15 0Z" fill="#020202"/></g><rect x="166.55" y="458" width="41.64" height="41.64" fill="#1e1e1e"/><polygon points="208.19,458 208.19,499.64 166.55,499.64" fill="#222222"/><rect x="208.18" y="458" width="41.64" height="41.64" fill="#303030"/><g transform="translate(208.18,458) scale(2.082) rotate(0)"><path d="M19.9981 0.00193429L3.72652 -7.68637e-07L8.4784 4.75382L0 13.2345L6.76585 20L15.2462 11.5208L20 16.2746L19.9981 0.00193429Z" fill="#000000"/></g><rect x="249.81825" y="416.36375" width="83.27275" height="83.27275" fill="#000000"/><rect x="249.82" y="416.36" width="41.64" height="41.64" fill="#323232"/><g transform="translate(249.82,416.36) scale(2.082) rotate(0)"><path d="M19.9981 0.00193429L3.72652 -7.68637e-07L8.4784 4.75382L0 13.2345L6.76585 20L15.2462 11.5208L20 16.2746L19.9981 0.00193429Z" fill="#4c4c4c"/></g><rect x="291.45" y="416.36" width="41.64" height="41.64" fill="#000000"/><g transform="translate(291.45,416.36) scale(2.082) rotate(0)"><rect width="20" height="2" fill="#2b2b2b"/><rect y="4" width="20" height="2" fill="#2b2b2b"/><rect y="8" width="20" height="2" fill="#2b2b2b"/><rect y="12" width="20" height="2" fill="#2b2b2b"/><rect y="16" width="20" height="2" fill="#2b2b2b"/></g><rect x="249.82" y="458" width="41.64" height="41.64" fill="#0c0c0c"/><g transform="translate(249.82,458) scale(2.082) rotate(0)"><path d="M19.9981 0.00193429L3.72652 -7.68637e-07L8.4784 4.75382L0 13.2345L6.76585 20L15.2462 11.5208L20 16.2746L19.9981 0.00193429Z" fill="#000000"/></g><rect x="291.45" y="458" width="41.64" height="41.64" fill="#303030"/><g transform="translate(291.45,458) scale(2.082) rotate(0)"><rect width="2" height="20" fill="#090909"/><rect x="4" width="2" height="20" fill="#090909"/><rect x="8" width="2" height="20" fill="#090909"/><rect x="12" width="2" height="20" fill="#090909"/><rect x="16" width="2" height="20" fill="#090909"/></g><rect x="0" y="499.6365" width="83.27275" height="83.27275" fill="#000000"/><rect x="0" y="499.64" width="41.64" height="41.64" fill="#000000"/><g transform="translate(0,499.64) scale(2.082) rotate(0)"><path d="M5 0H10L5 5L0 10V5L5 0Z" fill="#000000"/><path d="M20 15V20H15L20 15Z" fill="#000000"/><path d="M20 5V10L15 15L10 20H5L20 5Z" fill="#000000"/><path d="M15 0H20L5 15.0002L0 20.0002V15.0002L15 0Z" fill="#000000"/></g><rect x="41.64" y="499.64" width="41.64" height="41.64" fill="#2f2f2f"/><path d="M 41.64 499.64 A 41.64 41.64 0 0 1 83.28 541.28 L 41.64 541.28" fill="#000000"/><rect x="0" y="541.27" width="41.64" height="41.64" fill="#000000"/><g transform="translate(0,541.27) scale(2.082) rotate(0)"><path d="M13 0H20V7L7 20H0V13L13 0Z" fill="#1d1d1d"/></g><rect x="41.64" y="541.27" width="41.64" height="41.64" fill="#000000"/><path d="M 41.64 541.27 A 41.64 41.64 0 0 1  83.28 582.91 L 41.64 541.27 A 41.64 41.64 0 0 0 83.28 582.91" fill="#000000"/><rect x="83.27275" y="499.6365" width="83.27275" height="83.27275" fill="#000000"/><rect x="83.27" y="499.64" width="41.64" height="41.64" fill="#1c1c1c"/><g transform="translate(83.27,499.64) scale(2.082) rotate(0)"><path d="M5 0H10L5 5L0 10V5L5 0Z" fill="#4d4d4d"/><path d="M20 15V20H15L20 15Z" fill="#4d4d4d"/><path d="M20 5V10L15 15L10 20H5L20 5Z" fill="#4d4d4d"/><path d="M15 0H20L5 15.0002L0 20.0002V15.0002L15 0Z" fill="#4d4d4d"/></g><rect x="124.91" y="499.64" width="41.64" height="41.64" fill="#2c2c2c"/><rect x="124.91" y="499.64" width="41.64" height="41.64" fill="#131313"/><rect x="83.27" y="541.27" width="41.64" height="41.64" fill="#000000"/><g transform="translate(83.27,541.27) scale(2.082) rotate(0)"><path d="M13 0H20V7L7 20H0V13L13 0Z" fill="#1f1f1f"/></g><rect x="124.91" y="541.27" width="41.64" height="41.64" fill="#000000"/><rect x="124.91" y="541.27" width="41.64" height="41.64" fill="#000000"/><rect x="166.5455" y="499.6365" width="83.27275" height="83.27275" fill="#000000"/><rect x="166.55" y="499.64" width="41.64" height="41.64" fill="#161616"/><path d="M 166.55 541.28 A 41.64 41.64 0 0 1  208.19 499.64 L 166.55 541.28 A 41.64 41.64 0 0 0 208.19 499.64" fill="#434343"/><rect x="208.18" y="499.64" width="41.64" height="41.64" fill="#4d4d4d"/><circle cx="229" cy="520.46" r="20.82" fill="#444444"/><rect x="166.55" y="541.27" width="41.64" height="41.64" fill="#000000"/><g transform="translate(166.55,541.27) scale(2.082) rotate(0)"><path d="M5 0H10L5 5L0 10V5L5 0Z" fill="#000000"/><path d="M20 15V20H15L20 15Z" fill="#000000"/><path d="M20 5V10L15 15L10 20H5L20 5Z" fill="#000000"/><path d="M15 0H20L5 15.0002L0 20.0002V15.0002L15 0Z" fill="#000000"/></g><rect x="208.18" y="541.27" width="41.64" height="41.64" fill="#000000"/><g transform="translate(208.18,541.27) scale(2.082) rotate(0)"><path fill-rule="evenodd" clip-rule="evenodd" d="M10 20C15.5228 20 20 15.5228 20 10C20 4.47715 15.5228 0 10 0C4.47715 0 0 4.47715 0 10C0 15.5228 4.47715 20 10 20ZM10 17C13.866 17 17 13.866 17 10C17 6.13401 13.866 3 10 3C6.13401 3 3 6.13401 3 10C3 13.866 6.13401 17 10 17Z" fill="#000000"/></g><rect x="249.81825" y="499.6365" width="83.27275" height="83.27275" fill="#000000"/><rect x="249.82" y="499.64" width="41.64" height="41.64" fill="#000000"/><circle cx="270.64" cy="520.46" r="20.82" fill="#515151"/><rect x="291.45" y="499.64" width="41.64" height="41.64" fill="#000000"/><path d="M 291.45 541.28 A 41.64 41.64 0 0 1  333.09 499.64 L 291.45 541.28 A 41.64 41.64 0 0 0 333.09 499.64" fill="#505050"/><rect x="249.82" y="541.27" width="41.64" height="41.64" fill="#515151"/><g transform="translate(249.82,541.27) scale(2.082) rotate(0)"><rect width="20" height="10" fill="#212121"/></g><rect x="291.45" y="541.27" width="41.64" height="41.64" fill="#000000"/><g transform="translate(291.45,541.27) scale(2.082) rotate(0)"><rect width="2" height="20" fill="#1b1b1b"/><rect x="4" width="2" height="20" fill="#1b1b1b"/><rect x="8" width="2" height="20" fill="#1b1b1b"/><rect x="12" width="2" height="20" fill="#1b1b1b"/><rect x="16" width="2" height="20" fill="#1b1b1b"/></g></g></svg>