<?xml version="1.0" standalone="no"?><svg xmlns:xlink="http://www.w3.org/1999/xlink" xmlns="http://www.w3.org/2000/svg" viewBox="0 0 1000 636.3655796928673" preserveAspectRatio="xMaxYMax slice"><g transform="scale(1.6443555030823445)"><rect x="0" y="0" width="608.1428571428571" height="387" fill="#fee3ec"/><rect x="0" y="0" width="55.29" height="55.29" fill="#fedfe9"/><g transform="translate(0,0) scale(2.7645) rotate(0)"><path d="M10 5L5 0L0 5L5 10L0 15L5 20L10 15L15 20L20 15L15 10L20 5L15 0L10 5Z" fill="#fbcfdd"/></g><rect x="55.29" y="0" width="55.29" height="55.29" fill="#fcc6d7"/><g transform="translate(55.29,0) scale(2.7645) rotate(0)"><path fill-rule="evenodd" clip-rule="evenodd" d="M10 20C15.5228 20 20 15.5228 20 10C20 4.47715 15.5228 0 10 0C4.47715 0 0 4.47715 0 10C0 15.5228 4.47715 20 10 20ZM10 17C13.866 17 17 13.866 17 10C17 6.13401 13.866 3 10 3C6.13401 3 3 6.13401 3 10C3 13.866 6.13401 17 10 17Z" fill="#fddce7"/></g><rect x="110.57" y="0" width="55.29" height="55.29" fill="#f8afc6"/><g transform="translate(110.57,0) scale(2.7645) rotate(0)"><path d="M13 0H20V7L7 20H0V13L13 0Z" fill="#fac8d8"/></g><rect x="165.85714285714286" y="0" width="55.285714285714285" height="55.285714285714285" fill="#fee3ec"/><rect x="165.86" y="0" width="27.64" height="27.64" fill="#faa1bd"/><rect x="165.86" y="0" width="27.64" height="27.64" fill="#fcc4d6"/><rect x="193.5" y="0" width="27.64" height="27.64" fill="#f99ebb"/><g transform="translate(193.5,0) scale(1.3820000000000001) rotate(0)"><path d="M10 0L20 10L10 20L0 10L10 0Z" fill="#f595b4"/></g><rect x="165.86" y="27.64" width="27.64" height="27.64" fill="#fedfe9"/><path d="M 165.86 55.28 A 27.64 27.64 0 0 0 193.5 27.64 L 165.86 27.64" fill="#fbc9d9"/><rect x="193.5" y="27.64" width="27.64" height="27.64" fill="#f9c5d5"/><polygon points="193.5,27.64 221.14,27.64 193.5,55.28" fill="#fbd1de"/><rect x="221.14" y="0" width="55.29" height="55.29" fill="#faa9c3"/><polygon points="221.14,0 276.43,0 221.14,55.29" fill="#facddb"/><rect x="276.43" y="0" width="55.29" height="55.29" fill="#fedfe9"/><g transform="translate(276.43,0) scale(2.7645) rotate(0)"><rect width="20" height="2" fill="#fbb9ce"/><rect y="4" width="20" height="2" fill="#fbb9ce"/><rect y="8" width="20" height="2" fill="#fbb9ce"/><rect y="12" width="20" height="2" fill="#fbb9ce"/><rect y="16" width="20" height="2" fill="#fbb9ce"/></g><rect x="331.7142857142857" y="0" width="55.285714285714285" height="55.285714285714285" fill="#fee3ec"/><rect x="331.71" y="0" width="27.64" height="27.64" fill="#fbc8d9"/><path d="M 331.71 27.64 A 27.64 27.64 0 0 1  359.34999999999997 0 L 331.71 27.64 A 27.64 27.64 0 0 0 359.34999999999997 0" fill="#fee2eb"/><rect x="359.36" y="0" width="27.64" height="27.64" fill="#fddde7"/><g transform="translate(359.36,0) scale(1.3820000000000001) rotate(0)"><rect width="20" height="10" fill="#faccdb"/></g><rect x="331.71" y="27.64" width="27.64" height="27.64" fill="#f7a2bd"/><polygon points="331.71,27.64 359.34999999999997,27.64 331.71,55.28" fill="#fccedd"/><rect x="359.36" y="27.64" width="27.64" height="27.64" fill="#fcc3d5"/><polygon points="359.36,27.64 387,27.64 387,55.28" fill="#fedfe9"/><rect x="387" y="0" width="55.285714285714285" height="55.285714285714285" fill="#fee3ec"/><rect x="387" y="0" width="27.64" height="27.64" fill="#fcd7e3"/><g transform="translate(387,0) scale(1.3820000000000001) rotate(0)"><rect width="20" height="10" fill="#f8afc7"/></g><rect x="414.64" y="0" width="27.64" height="27.64" fill="#fbb8cd"/><g transform="translate(414.64,0) scale(1.3820000000000001) rotate(0)"><path d="M13 0H20V7L7 20H0V13L13 0Z" fill="#fddae6"/></g><rect x="387" y="27.64" width="27.64" height="27.64" fill="#f99eba"/><rect x="387" y="27.64" width="27.64" height="27.64" fill="#faaec6"/><rect x="414.64" y="27.64" width="27.64" height="27.64" fill="#fbb0c8"/><path d="M 414.64 55.28 A 27.64 27.64 0 0 0 442.28 27.64 L 414.64 27.64" fill="#f381a5"/><rect x="442.29" y="0" width="55.29" height="55.29" fill="#f9c6d5"/><g transform="translate(442.29,0) scale(2.7645) rotate(0)"><path d="M10 1L12.2451 7.90983H19.5106L13.6327 12.1803L15.8779 19.0902L10 14.8197L4.12215 19.0902L6.36729 12.1803L0.489441 7.90983H7.75487L10 1Z" fill="#f27ca2"/></g><rect x="497.57142857142856" y="0" width="55.285714285714285" height="55.285714285714285" fill="#fee3ec"/><rect x="497.57" y="0" width="27.64" height="27.64" fill="#fdd3e0"/><g transform="translate(497.57,0) scale(1.3820000000000001) rotate(0)"><path d="M10 0L20 10L10 20L0 10L10 0Z" fill="#f27ca2"/></g><rect x="525.21" y="0" width="27.64" height="27.64" fill="#fac2d5"/><g transform="translate(525.21,0) scale(1.3820000000000001) rotate(0)"><path d="M10 5L5 0L0 5L5 10L0 15L5 20L10 15L15 20L20 15L15 10L20 5L15 0L10 5Z" fill="#faa1bd"/></g><rect x="497.57" y="27.64" width="27.64" height="27.64" fill="#fbd3e0"/><path d="M 497.57 55.28 A 27.64 27.64 0 0 1  525.21 27.64 L 497.57 55.28 A 27.64 27.64 0 0 0 525.21 27.64" fill="#fbd2df"/><rect x="525.21" y="27.64" width="27.64" height="27.64" fill="#fddfe9"/><path d="M 525.21 55.28 A 27.64 27.64 0 0 1  552.85 27.64 L 525.21 55.28 A 27.64 27.64 0 0 0 552.85 27.64" fill="#f596b5"/><rect x="552.86" y="0" width="55.29" height="55.29" fill="#fccbdb"/><circle cx="580.505" cy="27.645" r="27.645" fill="#fddae6"/><rect x="0" y="55.29" width="55.29" height="55.29" fill="#fee1eb"/><path d="M 0 55.29 A 55.29 55.29 0 0 1  55.29 110.58 L 0 55.29 A 55.29 55.29 0 0 0 55.29 110.58" fill="#facedc"/><rect x="55.29" y="55.29" width="55.29" height="55.29" fill="#fcd8e4"/><circle cx="82.935" cy="82.935" r="27.645" fill="#f8b0c7"/><rect x="110.57" y="55.29" width="55.29" height="55.29" fill="#fac0d3"/><g transform="translate(110.57,55.29) scale(2.7645) rotate(0)"><path d="M13 0H20V7L7 20H0V13L13 0Z" fill="#f99ebb"/></g><rect x="165.86" y="55.29" width="55.29" height="55.29" fill="#fbbcd0"/><g transform="translate(165.86,55.29) scale(2.7645) rotate(0)"><path d="M10 1L12.2451 7.90983H19.5106L13.6327 12.1803L15.8779 19.0902L10 14.8197L4.12215 19.0902L6.36729 12.1803L0.489441 7.90983H7.75487L10 1Z" fill="#fcd9e4"/></g><rect x="221.14" y="55.29" width="55.29" height="55.29" fill="#f69bb8"/><g transform="translate(221.14,55.29) scale(2.7645) rotate(0)"><path d="M13 0H20V7L7 20H0V13L13 0Z" fill="#facbda"/></g><rect x="276.42857142857144" y="55.285714285714285" width="55.285714285714285" height="55.285714285714285" fill="#fee3ec"/><rect x="276.43" y="55.29" width="27.64" height="27.64" fill="#f8b0c7"/><rect x="276.43" y="55.29" width="27.64" height="27.64" fill="#fee1ea"/><rect x="304.07" y="55.29" width="27.64" height="27.64" fill="#faa2bd"/><polygon points="304.07,55.29 331.71,55.29 304.07,82.93" fill="#fedce7"/><rect x="276.43" y="82.93" width="27.64" height="27.64" fill="#f9b7cc"/><g transform="translate(276.43,82.93) scale(1.3820000000000001) rotate(0)"><path d="M19.9981 0.00193429L3.72652 -7.68637e-07L8.4784 4.75382L0 13.2345L6.76585 20L15.2462 11.5208L20 16.2746L19.9981 0.00193429Z" fill="#fbcada"/></g><rect x="304.07" y="82.93" width="27.64" height="27.64" fill="#fbd0de"/><g transform="translate(304.07,82.93) scale(1.3820000000000001) rotate(0)"><path d="M13 0H20V7L7 20H0V13L13 0Z" fill="#fac9d8"/></g><rect x="331.7142857142857" y="55.285714285714285" width="55.285714285714285" height="55.285714285714285" fill="#fee3ec"/><rect x="331.71" y="55.29" width="27.64" height="27.64" fill="#f384a8"/><g transform="translate(331.71,55.29) scale(1.3820000000000001) rotate(0)"><path d="M10 0H20L0 20V10L10 0Z" fill="#fddbe6"/><path d="M20 10V20H10L20 10Z" fill="#fddbe6"/></g><rect x="359.36" y="55.29" width="27.64" height="27.64" fill="#f9c5d5"/><g transform="translate(359.36,55.29) scale(1.3820000000000001) rotate(0)"><rect width="20" height="2" fill="#fdcddc"/><rect y="4" width="20" height="2" fill="#fdcddc"/><rect y="8" width="20" height="2" fill="#fdcddc"/><rect y="12" width="20" height="2" fill="#fdcddc"/><rect y="16" width="20" height="2" fill="#fdcddc"/></g><rect x="331.71" y="82.93" width="27.64" height="27.64" fill="#fee2eb"/><g transform="translate(331.71,82.93) scale(1.3820000000000001) rotate(0)"><rect width="20" height="2" fill="#fbbbcf"/><rect y="4" width="20" height="2" fill="#fbbbcf"/><rect y="8" width="20" height="2" fill="#fbbbcf"/><rect y="12" width="20" height="2" fill="#fbbbcf"/><rect y="16" width="20" height="2" fill="#fbbbcf"/></g><rect x="359.36" y="82.93" width="27.64" height="27.64" fill="#f9b3c9"/><g transform="translate(359.36,82.93) scale(1.3820000000000001) rotate(0)"><path d="M10 1L12.2451 7.90983H19.5106L13.6327 12.1803L15.8779 19.0902L10 14.8197L4.12215 19.0902L6.36729 12.1803L0.489441 7.90983H7.75487L10 1Z" fill="#fcc3d5"/></g><rect x="387" y="55.29" width="55.29" height="55.29" fill="#faadc6"/><polygon points="387,55.29 442.29,55.29 442.29,110.58" fill="#fee2ec"/><rect x="442.29" y="55.29" width="55.29" height="55.29" fill="#fcc5d7"/><circle cx="469.935" cy="82.935" r="27.645" fill="#f489ab"/><rect x="497.57142857142856" y="55.285714285714285" width="55.285714285714285" height="55.285714285714285" fill="#fee3ec"/><rect x="497.57" y="55.29" width="27.64" height="27.64" fill="#f9c6d6"/><g transform="translate(497.57,55.29) scale(1.3820000000000001) rotate(0)"><path d="M13 0H20V7L7 20H0V13L13 0Z" fill="#fbd0de"/></g><rect x="525.21" y="55.29" width="27.64" height="27.64" fill="#fcd5e1"/><g transform="translate(525.21,55.29) scale(1.3820000000000001) rotate(0)"><path d="M10 0H20V10L10 20H0V10L10 0Z" fill="#fcd4e1"/></g><rect x="497.57" y="82.93" width="27.64" height="27.64" fill="#fbd0de"/><g transform="translate(497.57,82.93) scale(1.3820000000000001) rotate(0)"><path d="M10 0H20V10L10 20H0V10L10 0Z" fill="#fbd1de"/></g><rect x="525.21" y="82.93" width="27.64" height="27.64" fill="#f48dae"/><g transform="translate(525.21,82.93) scale(1.3820000000000001) rotate(0)"><rect width="20" height="10" fill="#fcd5e2"/></g><rect x="552.86" y="55.29" width="55.29" height="55.29" fill="#f699b6"/><g transform="translate(552.86,55.29) scale(2.7645) rotate(0)"><path d="M19.9981 0.00193429L3.72652 -7.68637e-07L8.4784 4.75382L0 13.2345L6.76585 20L15.2462 11.5208L20 16.2746L19.9981 0.00193429Z" fill="#f99bb8"/></g><rect x="0" y="110.57142857142857" width="55.285714285714285" height="55.285714285714285" fill="#fee3ec"/><rect x="0" y="110.57" width="27.64" height="27.64" fill="#fedfe9"/><g transform="translate(0,110.57) scale(1.3820000000000001) rotate(0)"><path d="M10 5L5 0L0 5L5 10L0 15L5 20L10 15L15 20L20 15L15 10L20 5L15 0L10 5Z" fill="#fddee8"/></g><rect x="27.64" y="110.57" width="27.64" height="27.64" fill="#fee1ea"/><g transform="translate(27.64,110.57) scale(1.3820000000000001) rotate(0)"><path d="M19.9981 0.00193429L3.72652 -7.68637e-07L8.4784 4.75382L0 13.2345L6.76585 20L15.2462 11.5208L20 16.2746L19.9981 0.00193429Z" fill="#fddce7"/></g><rect x="0" y="138.21" width="27.64" height="27.64" fill="#fcc9d9"/><g transform="translate(0,138.21) scale(1.3820000000000001) rotate(0)"><path fill-rule="evenodd" clip-rule="evenodd" d="M10 20C15.5228 20 20 15.5228 20 10C20 4.47715 15.5228 0 10 0C4.47715 0 0 4.47715 0 10C0 15.5228 4.47715 20 10 20ZM10 17C13.866 17 17 13.866 17 10C17 6.13401 13.866 3 10 3C6.13401 3 3 6.13401 3 10C3 13.866 6.13401 17 10 17Z" fill="#fbcedc"/></g><rect x="27.64" y="138.21" width="27.64" height="27.64" fill="#f69ab7"/><g transform="translate(27.64,138.21) scale(1.3820000000000001) rotate(0)"><path d="M5 0H10L5 5L0 10V5L5 0Z" fill="#facad9"/><path d="M20 15V20H15L20 15Z" fill="#facad9"/><path d="M20 5V10L15 15L10 20H5L20 5Z" fill="#facad9"/><path d="M15 0H20L5 15.0002L0 20.0002V15.0002L15 0Z" fill="#facad9"/></g><rect x="55.29" y="110.57" width="55.29" height="55.29" fill="#fbd0dd"/><g transform="translate(55.29,110.57) scale(2.7645) rotate(0)"><path d="M10 0L20 10L10 20L0 10L10 0Z" fill="#fdd2df"/></g><rect x="110.57142857142857" y="110.57142857142857" width="55.285714285714285" height="55.285714285714285" fill="#fee3ec"/><rect x="110.57" y="110.57" width="27.64" height="27.64" fill="#facbd9"/><g transform="translate(110.57,110.57) scale(1.3820000000000001) rotate(0)"><path d="M10 5L5 0L0 5L5 10L0 15L5 20L10 15L15 20L20 15L15 10L20 5L15 0L10 5Z" fill="#fbcedc"/></g><rect x="138.21" y="110.57" width="27.64" height="27.64" fill="#f590b0"/><g transform="translate(138.21,110.57) scale(1.3820000000000001) rotate(0)"><path d="M10 0H20V10L10 20H0V10L10 0Z" fill="#f37da3"/></g><rect x="110.57" y="138.21" width="27.64" height="27.64" fill="#faafc7"/><path d="M 110.57 138.21 A 27.64 27.64 0 0 1  138.20999999999998 165.85000000000002 L 110.57 138.21 A 27.64 27.64 0 0 0 138.20999999999998 165.85000000000002" fill="#f382a6"/><rect x="138.21" y="138.21" width="27.64" height="27.64" fill="#f99fbc"/><g transform="translate(138.21,138.21) scale(1.3820000000000001) rotate(0)"><path d="M10 0L20 10L10 20L0 10L10 0Z" fill="#fdd6e3"/></g><rect x="165.85714285714286" y="110.57142857142857" width="55.285714285714285" height="55.285714285714285" fill="#fee3ec"/><rect x="165.86" y="110.57" width="27.64" height="27.64" fill="#fcc8d9"/><polygon points="193.5,110.57 193.5,138.20999999999998 165.86,138.20999999999998" fill="#facddb"/><rect x="193.5" y="110.57" width="27.64" height="27.64" fill="#fdcedd"/><g transform="translate(193.5,110.57) scale(1.3820000000000001) rotate(0)"><path d="M10 1L12.2451 7.90983H19.5106L13.6327 12.1803L15.8779 19.0902L10 14.8197L4.12215 19.0902L6.36729 12.1803L0.489441 7.90983H7.75487L10 1Z" fill="#fee0ea"/></g><rect x="165.86" y="138.21" width="27.64" height="27.64" fill="#fbb7cd"/><path d="M 165.86 165.85000000000002 A 27.64 27.64 0 0 1  193.5 138.21 L 165.86 165.85000000000002 A 27.64 27.64 0 0 0 193.5 138.21" fill="#f592b2"/><rect x="193.5" y="138.21" width="27.64" height="27.64" fill="#fedce7"/><polygon points="221.14,138.21 221.14,165.85000000000002 193.5,165.85000000000002" fill="#fcd4e1"/><rect x="221.14" y="110.57" width="55.29" height="55.29" fill="#faa4bf"/><g transform="translate(221.14,110.57) scale(2.7645) rotate(0)"><path d="M19.9981 0.00193429L3.72652 -7.68637e-07L8.4784 4.75382L0 13.2345L6.76585 20L15.2462 11.5208L20 16.2746L19.9981 0.00193429Z" fill="#f6a0bc"/></g><rect x="276.42857142857144" y="110.57142857142857" width="55.285714285714285" height="55.285714285714285" fill="#fee3ec"/><rect x="276.43" y="110.57" width="27.64" height="27.64" fill="#f48cad"/><path d="M 276.43 138.20999999999998 A 27.64 27.64 0 0 1  304.07 110.57 L 276.43 138.20999999999998 A 27.64 27.64 0 0 0 304.07 110.57" fill="#fee0ea"/><rect x="304.07" y="110.57" width="27.64" height="27.64" fill="#f27ca2"/><g transform="translate(304.07,110.57) scale(1.3820000000000001) rotate(0)"><path fill-rule="evenodd" clip-rule="evenodd" d="M10 20C15.5228 20 20 15.5228 20 10C20 4.47715 15.5228 0 10 0C4.47715 0 0 4.47715 0 10C0 15.5228 4.47715 20 10 20ZM10 17C13.866 17 17 13.866 17 10C17 6.13401 13.866 3 10 3C6.13401 3 3 6.13401 3 10C3 13.866 6.13401 17 10 17Z" fill="#f99fbb"/></g><rect x="276.43" y="138.21" width="27.64" height="27.64" fill="#f9bacf"/><g transform="translate(276.43,138.21) scale(1.3820000000000001) rotate(0)"><path d="M10 0H20L0 20V10L10 0Z" fill="#faa7c1"/><path d="M20 10V20H10L20 10Z" fill="#faa7c1"/></g><rect x="304.07" y="138.21" width="27.64" height="27.64" fill="#facedc"/><g transform="translate(304.07,138.21) scale(1.3820000000000001) rotate(0)"><path d="M10 5L5 0L0 5L5 10L0 15L5 20L10 15L15 20L20 15L15 10L20 5L15 0L10 5Z" fill="#fac1d4"/></g><rect x="331.7142857142857" y="110.57142857142857" width="55.285714285714285" height="55.285714285714285" fill="#fee3ec"/><rect x="331.71" y="110.57" width="27.64" height="27.64" fill="#fbd1de"/><g transform="translate(331.71,110.57) scale(1.3820000000000001) rotate(0)"><path d="M19.9981 0.00193429L3.72652 -7.68637e-07L8.4784 4.75382L0 13.2345L6.76585 20L15.2462 11.5208L20 16.2746L19.9981 0.00193429Z" fill="#fddee8"/></g><rect x="359.36" y="110.57" width="27.64" height="27.64" fill="#fbd2df"/><g transform="translate(359.36,110.57) scale(1.3820000000000001) rotate(0)"><path d="M10 0H20V10L10 20H0V10L10 0Z" fill="#fcc6d8"/></g><rect x="331.71" y="138.21" width="27.64" height="27.64" fill="#faa4bf"/><g transform="translate(331.71,138.21) scale(1.3820000000000001) rotate(0)"><path d="M10 0L20 10L10 20L0 10L10 0Z" fill="#f27ca2"/></g><rect x="359.36" y="138.21" width="27.64" height="27.64" fill="#fddce6"/><polygon points="359.36,138.21 387,138.21 359.36,165.85000000000002" fill="#f382a6"/><rect x="387" y="110.57142857142857" width="55.285714285714285" height="55.285714285714285" fill="#fee3ec"/><rect x="387" y="110.57" width="27.64" height="27.64" fill="#fbd0dd"/><rect x="387" y="110.57" width="27.64" height="27.64" fill="#fbcfdc"/><rect x="414.64" y="110.57" width="27.64" height="27.64" fill="#f69dba"/><g transform="translate(414.64,110.57) scale(1.3820000000000001) rotate(0)"><path d="M10 0H20L0 20V10L10 0Z" fill="#fcc4d5"/><path d="M20 10V20H10L20 10Z" fill="#fcc4d5"/></g><rect x="387" y="138.21" width="27.64" height="27.64" fill="#fcc2d5"/><g transform="translate(387,138.21) scale(1.3820000000000001) rotate(0)"><path d="M10 5L5 0L0 5L5 10L0 15L5 20L10 15L15 20L20 15L15 10L20 5L15 0L10 5Z" fill="#fcd8e4"/></g><rect x="414.64" y="138.21" width="27.64" height="27.64" fill="#f8adc5"/><path d="M 414.64 165.85000000000002 A 27.64 27.64 0 0 1  442.28 138.21 L 414.64 165.85000000000002 A 27.64 27.64 0 0 0 442.28 138.21" fill="#f487aa"/><rect x="442.29" y="110.57" width="55.29" height="55.29" fill="#f486a9"/><g transform="translate(442.29,110.57) scale(2.7645) rotate(0)"><rect width="20" height="10" fill="#fedfe9"/></g><rect x="497.57142857142856" y="110.57142857142857" width="55.285714285714285" height="55.285714285714285" fill="#fee3ec"/><rect x="497.57" y="110.57" width="27.64" height="27.64" fill="#faccda"/><g transform="translate(497.57,110.57) scale(1.3820000000000001) rotate(0)"><rect width="2" height="20" fill="#fac0d2"/><rect x="4" width="2" height="20" fill="#fac0d2"/><rect x="8" width="2" height="20" fill="#fac0d2"/><rect x="12" width="2" height="20" fill="#fac0d2"/><rect x="16" width="2" height="20" fill="#fac0d2"/></g><rect x="525.21" y="110.57" width="27.64" height="27.64" fill="#f699b7"/><g transform="translate(525.21,110.57) scale(1.3820000000000001) rotate(0)"><path fill-rule="evenodd" clip-rule="evenodd" d="M10 20C15.5228 20 20 15.5228 20 10C20 4.47715 15.5228 0 10 0C4.47715 0 0 4.47715 0 10C0 15.5228 4.47715 20 10 20ZM10 17C13.866 17 17 13.866 17 10C17 6.13401 13.866 3 10 3C6.13401 3 3 6.13401 3 10C3 13.866 6.13401 17 10 17Z" fill="#faa4bf"/></g><rect x="497.57" y="138.21" width="27.64" height="27.64" fill="#fbccdb"/><g transform="translate(497.57,138.21) scale(1.3820000000000001) rotate(0)"><path d="M10 0L20 10L10 20L0 10L10 0Z" fill="#f595b4"/></g><rect x="525.21" y="138.21" width="27.64" height="27.64" fill="#facddb"/><polygon points="525.21,138.21 552.85,138.21 552.85,165.85000000000002" fill="#fbccdb"/><rect x="552.86" y="110.57" width="55.29" height="55.29" fill="#fcc6d7"/><g transform="translate(552.86,110.57) scale(2.7645) rotate(0)"><path d="M13 0H20V7L7 20H0V13L13 0Z" fill="#f27aa1"/></g><rect x="0" y="165.86" width="55.29" height="55.29" fill="#fccada"/><g transform="translate(0,165.86) scale(2.7645) rotate(0)"><path fill-rule="evenodd" clip-rule="evenodd" d="M10 20C15.5228 20 20 15.5228 20 10C20 4.47715 15.5228 0 10 0C4.47715 0 0 4.47715 0 10C0 15.5228 4.47715 20 10 20ZM10 17C13.866 17 17 13.866 17 10C17 6.13401 13.866 3 10 3C6.13401 3 3 6.13401 3 10C3 13.866 6.13401 17 10 17Z" fill="#fcd7e2"/></g><rect x="55.29" y="165.86" width="55.29" height="55.29" fill="#fcd8e3"/><g transform="translate(55.29,165.86) scale(2.7645) rotate(0)"><path fill-rule="evenodd" clip-rule="evenodd" d="M10 20C15.5228 20 20 15.5228 20 10C20 4.47715 15.5228 0 10 0C4.47715 0 0 4.47715 0 10C0 15.5228 4.47715 20 10 20ZM10 17C13.866 17 17 13.866 17 10C17 6.13401 13.866 3 10 3C6.13401 3 3 6.13401 3 10C3 13.866 6.13401 17 10 17Z" fill="#f381a6"/></g><rect x="110.57142857142857" y="165.85714285714286" width="55.285714285714285" height="55.285714285714285" fill="#fee3ec"/><rect x="110.57" y="165.86" width="27.64" height="27.64" fill="#faafc7"/><g transform="translate(110.57,165.86) scale(1.3820000000000001) rotate(0)"><path d="M10 0L20 10L10 20L0 10L10 0Z" fill="#fddfe9"/></g><rect x="138.21" y="165.86" width="27.64" height="27.64" fill="#facad9"/><g transform="translate(138.21,165.86) scale(1.3820000000000001) rotate(0)"><rect width="20" height="10" fill="#fcc3d5"/></g><rect x="110.57" y="193.5" width="27.64" height="27.64" fill="#fedfe9"/><g transform="translate(110.57,193.5) scale(1.3820000000000001) rotate(0)"><path d="M10 0H20L0 20V10L10 0Z" fill="#fddae5"/><path d="M20 10V20H10L20 10Z" fill="#fddae5"/></g><rect x="138.21" y="193.5" width="27.64" height="27.64" fill="#f9c5d5"/><g transform="translate(138.21,193.5) scale(1.3820000000000001) rotate(0)"><path d="M10 0H20L0 20V10L10 0Z" fill="#f7a3be"/><path d="M20 10V20H10L20 10Z" fill="#f7a3be"/></g><rect x="165.86" y="165.86" width="55.29" height="55.29" fill="#faaec6"/><path d="M 165.86 165.86 A 55.29 55.29 0 0 1 221.15 221.15 L 165.86 221.15" fill="#fac9d8"/><rect x="221.14285714285714" y="165.85714285714286" width="55.285714285714285" height="55.285714285714285" fill="#fee3ec"/><rect x="221.14" y="165.86" width="27.64" height="27.64" fill="#fbbdd1"/><g transform="translate(221.14,165.86) scale(1.3820000000000001) rotate(0)"><rect width="20" height="10" fill="#fbc9da"/></g><rect x="248.79" y="165.86" width="27.64" height="27.64" fill="#fcc7d8"/><g transform="translate(248.79,165.86) scale(1.3820000000000001) rotate(0)"><path d="M5 0H10L5 5L0 10V5L5 0Z" fill="#fdd8e4"/><path d="M20 15V20H15L20 15Z" fill="#fdd8e4"/><path d="M20 5V10L15 15L10 20H5L20 5Z" fill="#fdd8e4"/><path d="M15 0H20L5 15.0002L0 20.0002V15.0002L15 0Z" fill="#fdd8e4"/></g><rect x="221.14" y="193.5" width="27.64" height="27.64" fill="#fdd6e3"/><circle cx="234.95999999999998" cy="207.32" r="13.82" fill="#faa2bd"/><rect x="248.79" y="193.5" width="27.64" height="27.64" fill="#fbccdc"/><g transform="translate(248.79,193.5) scale(1.3820000000000001) rotate(0)"><rect width="20" height="2" fill="#facad9"/><rect y="4" width="20" height="2" fill="#facad9"/><rect y="8" width="20" height="2" fill="#facad9"/><rect y="12" width="20" height="2" fill="#facad9"/><rect y="16" width="20" height="2" fill="#facad9"/></g><rect x="276.42857142857144" y="165.85714285714286" width="55.285714285714285" height="55.285714285714285" fill="#fee3ec"/><rect x="276.43" y="165.86" width="27.64" height="27.64" fill="#fde0ea"/><polygon points="276.43,165.86 304.07,193.5 276.43,193.5" fill="#f9b6cc"/><rect x="304.07" y="165.86" width="27.64" height="27.64" fill="#fee1eb"/><g transform="translate(304.07,165.86) scale(1.3820000000000001) rotate(0)"><rect width="20" height="10" fill="#fee1ea"/></g><rect x="276.43" y="193.5" width="27.64" height="27.64" fill="#fddfe9"/><g transform="translate(276.43,193.5) scale(1.3820000000000001) rotate(0)"><path d="M10 0L20 10L10 20L0 10L10 0Z" fill="#f7a1bd"/></g><rect x="304.07" y="193.5" width="27.64" height="27.64" fill="#fcd0de"/><g transform="translate(304.07,193.5) scale(1.3820000000000001) rotate(0)"><rect width="20" height="2" fill="#fbb9ce"/><rect y="4" width="20" height="2" fill="#fbb9ce"/><rect y="8" width="20" height="2" fill="#fbb9ce"/><rect y="12" width="20" height="2" fill="#fbb9ce"/><rect y="16" width="20" height="2" fill="#fbb9ce"/></g><rect x="331.7142857142857" y="165.85714285714286" width="55.285714285714285" height="55.285714285714285" fill="#fee3ec"/><rect x="331.71" y="165.86" width="27.64" height="27.64" fill="#f487aa"/><g transform="translate(331.71,165.86) scale(1.3820000000000001) rotate(0)"><path d="M10 0H20L0 20V10L10 0Z" fill="#fac9d8"/><path d="M20 10V20H10L20 10Z" fill="#fac9d8"/></g><rect x="359.36" y="165.86" width="27.64" height="27.64" fill="#fdd5e2"/><polygon points="359.36,165.86 387,165.86 359.36,193.5" fill="#f6a0bc"/><rect x="331.71" y="193.5" width="27.64" height="27.64" fill="#fbbdd1"/><g transform="translate(331.71,193.5) scale(1.3820000000000001) rotate(0)"><path fill-rule="evenodd" clip-rule="evenodd" d="M10 20C15.5228 20 20 15.5228 20 10C20 4.47715 15.5228 0 10 0C4.47715 0 0 4.47715 0 10C0 15.5228 4.47715 20 10 20ZM10 17C13.866 17 17 13.866 17 10C17 6.13401 13.866 3 10 3C6.13401 3 3 6.13401 3 10C3 13.866 6.13401 17 10 17Z" fill="#fdd8e4"/></g><rect x="359.36" y="193.5" width="27.64" height="27.64" fill="#faa4bf"/><polygon points="387,193.5 387,221.14 359.36,221.14" fill="#fbc7d8"/><rect x="387" y="165.85714285714286" width="55.285714285714285" height="55.285714285714285" fill="#fee3ec"/><rect x="387" y="165.86" width="27.64" height="27.64" fill="#f27aa0"/><g transform="translate(387,165.86) scale(1.3820000000000001) rotate(0)"><path d="M5 0H10L5 5L0 10V5L5 0Z" fill="#fddde7"/><path d="M20 15V20H15L20 15Z" fill="#fddde7"/><path d="M20 5V10L15 15L10 20H5L20 5Z" fill="#fddde7"/><path d="M15 0H20L5 15.0002L0 20.0002V15.0002L15 0Z" fill="#fddde7"/></g><rect x="414.64" y="165.86" width="27.64" height="27.64" fill="#fcd4e1"/><g transform="translate(414.64,165.86) scale(1.3820000000000001) rotate(0)"><path d="M10 5L5 0L0 5L5 10L0 15L5 20L10 15L15 20L20 15L15 10L20 5L15 0L10 5Z" fill="#fddae5"/></g><rect x="387" y="193.5" width="27.64" height="27.64" fill="#fcd5e1"/><g transform="translate(387,193.5) scale(1.3820000000000001) rotate(0)"><rect width="2" height="20" fill="#fbcedc"/><rect x="4" width="2" height="20" fill="#fbcedc"/><rect x="8" width="2" height="20" fill="#fbcedc"/><rect x="12" width="2" height="20" fill="#fbcedc"/><rect x="16" width="2" height="20" fill="#fbcedc"/></g><rect x="414.64" y="193.5" width="27.64" height="27.64" fill="#facedc"/><g transform="translate(414.64,193.5) scale(1.3820000000000001) rotate(0)"><path d="M10 0L20 10L10 20L0 10L10 0Z" fill="#fabbcf"/></g><rect x="442.2857142857143" y="165.85714285714286" width="55.285714285714285" height="55.285714285714285" fill="#fee3ec"/><rect x="442.29" y="165.86" width="27.64" height="27.64" fill="#fdd8e4"/><g transform="translate(442.29,165.86) scale(1.3820000000000001) rotate(0)"><path d="M19.9981 0.00193429L3.72652 -7.68637e-07L8.4784 4.75382L0 13.2345L6.76585 20L15.2462 11.5208L20 16.2746L19.9981 0.00193429Z" fill="#f7a4bf"/></g><rect x="469.93" y="165.86" width="27.64" height="27.64" fill="#fbb6cc"/><g transform="translate(469.93,165.86) scale(1.3820000000000001) rotate(0)"><rect width="2" height="20" fill="#f488ab"/><rect x="4" width="2" height="20" fill="#f488ab"/><rect x="8" width="2" height="20" fill="#f488ab"/><rect x="12" width="2" height="20" fill="#f488ab"/><rect x="16" width="2" height="20" fill="#f488ab"/></g><rect x="442.29" y="193.5" width="27.64" height="27.64" fill="#f9c6d6"/><g transform="translate(442.29,193.5) scale(1.3820000000000001) rotate(0)"><rect width="2" height="20" fill="#fac9d8"/><rect x="4" width="2" height="20" fill="#fac9d8"/><rect x="8" width="2" height="20" fill="#fac9d8"/><rect x="12" width="2" height="20" fill="#fac9d8"/><rect x="16" width="2" height="20" fill="#fac9d8"/></g><rect x="469.93" y="193.5" width="27.64" height="27.64" fill="#f7a1bc"/><g transform="translate(469.93,193.5) scale(1.3820000000000001) rotate(0)"><rect width="20" height="2" fill="#fbb2c9"/><rect y="4" width="20" height="2" fill="#fbb2c9"/><rect y="8" width="20" height="2" fill="#fbb2c9"/><rect y="12" width="20" height="2" fill="#fbb2c9"/><rect y="16" width="20" height="2" fill="#fbb2c9"/></g><rect x="497.57142857142856" y="165.85714285714286" width="55.285714285714285" height="55.285714285714285" fill="#fee3ec"/><rect x="497.57" y="165.86" width="27.64" height="27.64" fill="#fee0ea"/><g transform="translate(497.57,165.86) scale(1.3820000000000001) rotate(0)"><rect width="2" height="20" fill="#f9c6d6"/><rect x="4" width="2" height="20" fill="#f9c6d6"/><rect x="8" width="2" height="20" fill="#f9c6d6"/><rect x="12" width="2" height="20" fill="#f9c6d6"/><rect x="16" width="2" height="20" fill="#f9c6d6"/></g><rect x="525.21" y="165.86" width="27.64" height="27.64" fill="#facad9"/><path d="M 525.21 165.86 A 27.64 27.64 0 0 1  552.85 193.5 L 525.21 165.86 A 27.64 27.64 0 0 0 552.85 193.5" fill="#f385a8"/><rect x="497.57" y="193.5" width="27.64" height="27.64" fill="#fcd4e1"/><g transform="translate(497.57,193.5) scale(1.3820000000000001) rotate(0)"><rect width="20" height="2" fill="#fcd6e2"/><rect y="4" width="20" height="2" fill="#fcd6e2"/><rect y="8" width="20" height="2" fill="#fcd6e2"/><rect y="12" width="20" height="2" fill="#fcd6e2"/><rect y="16" width="20" height="2" fill="#fcd6e2"/></g><rect x="525.21" y="193.5" width="27.64" height="27.64" fill="#fbc5d6"/><g transform="translate(525.21,193.5) scale(1.3820000000000001) rotate(0)"><path d="M19.9981 0.00193429L3.72652 -7.68637e-07L8.4784 4.75382L0 13.2345L6.76585 20L15.2462 11.5208L20 16.2746L19.9981 0.00193429Z" fill="#f596b5"/></g><rect x="552.8571428571429" y="165.85714285714286" width="55.285714285714285" height="55.285714285714285" fill="#fee3ec"/><rect x="552.86" y="165.86" width="27.64" height="27.64" fill="#f9c6d6"/><polygon points="552.86,165.86 580.5,165.86 552.86,193.5" fill="#f699b7"/><rect x="580.5" y="165.86" width="27.64" height="27.64" fill="#f9c5d5"/><path d="M 580.5 193.5 A 27.64 27.64 0 0 1  608.14 165.86 L 580.5 193.5 A 27.64 27.64 0 0 0 608.14 165.86" fill="#f8afc7"/><rect x="552.86" y="193.5" width="27.64" height="27.64" fill="#f488ab"/><g transform="translate(552.86,193.5) scale(1.3820000000000001) rotate(0)"><path d="M10 0H20L0 20V10L10 0Z" fill="#faa2bd"/><path d="M20 10V20H10L20 10Z" fill="#faa2bd"/></g><rect x="580.5" y="193.5" width="27.64" height="27.64" fill="#f69cb9"/><g transform="translate(580.5,193.5) scale(1.3820000000000001) rotate(0)"><rect width="20" height="10" fill="#fddee9"/></g><rect x="0" y="221.14" width="55.29" height="55.29" fill="#f9c6d6"/><path d="M 0 221.14 A 55.29 55.29 0 0 0 55.29 276.43 L 55.29 221.14" fill="#fddce7"/><rect x="55.285714285714285" y="221.14285714285714" width="55.285714285714285" height="55.285714285714285" fill="#fee3ec"/><rect x="55.29" y="221.14" width="27.64" height="27.64" fill="#fbccdc"/><g transform="translate(55.29,221.14) scale(1.3820000000000001) rotate(0)"><path d="M10 0H20V10L10 20H0V10L10 0Z" fill="#faa1bd"/></g><rect x="82.93" y="221.14" width="27.64" height="27.64" fill="#f9c8d7"/><path d="M 82.93 248.77999999999997 A 27.64 27.64 0 0 1  110.57000000000001 221.14 L 82.93 248.77999999999997 A 27.64 27.64 0 0 0 110.57000000000001 221.14" fill="#fac8d7"/><rect x="55.29" y="248.79" width="27.64" height="27.64" fill="#fddde7"/><g transform="translate(55.29,248.79) scale(1.3820000000000001) rotate(0)"><path d="M10 1L12.2451 7.90983H19.5106L13.6327 12.1803L15.8779 19.0902L10 14.8197L4.12215 19.0902L6.36729 12.1803L0.489441 7.90983H7.75487L10 1Z" fill="#faaac3"/></g><rect x="82.93" y="248.79" width="27.64" height="27.64" fill="#faccda"/><polygon points="82.93,248.79 110.57000000000001,276.43 82.93,276.43" fill="#fbbdd1"/><rect x="110.57142857142857" y="221.14285714285714" width="55.285714285714285" height="55.285714285714285" fill="#fee3ec"/><rect x="110.57" y="221.14" width="27.64" height="27.64" fill="#f99fbb"/><g transform="translate(110.57,221.14) scale(1.3820000000000001) rotate(0)"><rect width="20" height="2" fill="#fcd6e2"/><rect y="4" width="20" height="2" fill="#fcd6e2"/><rect y="8" width="20" height="2" fill="#fcd6e2"/><rect y="12" width="20" height="2" fill="#fcd6e2"/><rect y="16" width="20" height="2" fill="#fcd6e2"/></g><rect x="138.21" y="221.14" width="27.64" height="27.64" fill="#f592b1"/><path d="M 138.21 221.14 A 27.64 27.64 0 0 1  165.85000000000002 248.77999999999997 L 138.21 221.14 A 27.64 27.64 0 0 0 165.85000000000002 248.77999999999997" fill="#fddce7"/><rect x="110.57" y="248.79" width="27.64" height="27.64" fill="#fddee8"/><rect x="110.57" y="248.79" width="27.64" height="27.64" fill="#faa9c3"/><rect x="138.21" y="248.79" width="27.64" height="27.64" fill="#f7a6c0"/><circle cx="152.03" cy="262.61" r="13.82" fill="#fcd9e5"/><rect x="165.86" y="221.14" width="55.29" height="55.29" fill="#fcd7e3"/><g transform="translate(165.86,221.14) scale(2.7645) rotate(0)"><rect width="20" height="10" fill="#fbd0dd"/></g><rect x="221.14285714285714" y="221.14285714285714" width="55.285714285714285" height="55.285714285714285" fill="#fee3ec"/><rect x="221.14" y="221.14" width="27.64" height="27.64" fill="#fde0e9"/><path d="M 221.14 248.77999999999997 A 27.64 27.64 0 0 1  248.77999999999997 221.14 L 221.14 248.77999999999997 A 27.64 27.64 0 0 0 248.77999999999997 221.14" fill="#fbd4e0"/><rect x="248.79" y="221.14" width="27.64" height="27.64" fill="#faa4bf"/><g transform="translate(248.79,221.14) scale(1.3820000000000001) rotate(0)"><path d="M5 0H10L5 5L0 10V5L5 0Z" fill="#fee2ec"/><path d="M20 15V20H15L20 15Z" fill="#fee2ec"/><path d="M20 5V10L15 15L10 20H5L20 5Z" fill="#fee2ec"/><path d="M15 0H20L5 15.0002L0 20.0002V15.0002L15 0Z" fill="#fee2ec"/></g><rect x="221.14" y="248.79" width="27.64" height="27.64" fill="#fbbace"/><g transform="translate(221.14,248.79) scale(1.3820000000000001) rotate(0)"><path d="M10 5L5 0L0 5L5 10L0 15L5 20L10 15L15 20L20 15L15 10L20 5L15 0L10 5Z" fill="#f69cb9"/></g><rect x="248.79" y="248.79" width="27.64" height="27.64" fill="#fcc1d4"/><rect x="248.79" y="248.79" width="27.64" height="27.64" fill="#f99fbb"/><rect x="276.43" y="221.14" width="55.29" height="55.29" fill="#fcd8e3"/><g transform="translate(276.43,221.14) scale(2.7645) rotate(0)"><path d="M19.9981 0.00193429L3.72652 -7.68637e-07L8.4784 4.75382L0 13.2345L6.76585 20L15.2462 11.5208L20 16.2746L19.9981 0.00193429Z" fill="#fdcfde"/></g><rect x="331.71" y="221.14" width="55.29" height="55.29" fill="#f9c6d6"/><g transform="translate(331.71,221.14) scale(2.7645) rotate(0)"><path d="M19.9981 0.00193429L3.72652 -7.68637e-07L8.4784 4.75382L0 13.2345L6.76585 20L15.2462 11.5208L20 16.2746L19.9981 0.00193429Z" fill="#fcd9e4"/></g><rect x="387" y="221.14" width="55.29" height="55.29" fill="#fcd9e4"/><g transform="translate(387,221.14) scale(2.7645) rotate(0)"><path d="M10 0H20V10L10 20H0V10L10 0Z" fill="#fbbed1"/></g><rect x="442.29" y="221.14" width="55.29" height="55.29" fill="#fee1ea"/><g transform="translate(442.29,221.14) scale(2.7645) rotate(0)"><path d="M19.9981 0.00193429L3.72652 -7.68637e-07L8.4784 4.75382L0 13.2345L6.76585 20L15.2462 11.5208L20 16.2746L19.9981 0.00193429Z" fill="#fee1ea"/></g><rect x="497.57142857142856" y="221.14285714285714" width="55.285714285714285" height="55.285714285714285" fill="#fee3ec"/><rect x="497.57" y="221.14" width="27.64" height="27.64" fill="#fdd0de"/><circle cx="511.39" cy="234.95999999999998" r="13.82" fill="#facad9"/><rect x="525.21" y="221.14" width="27.64" height="27.64" fill="#fcd5e2"/><circle cx="539.0300000000001" cy="234.95999999999998" r="13.82" fill="#f7a7c1"/><rect x="497.57" y="248.79" width="27.64" height="27.64" fill="#fbd3e0"/><g transform="translate(497.57,248.79) scale(1.3820000000000001) rotate(0)"><path d="M19.9981 0.00193429L3.72652 -7.68637e-07L8.4784 4.75382L0 13.2345L6.76585 20L15.2462 11.5208L20 16.2746L19.9981 0.00193429Z" fill="#f99fbb"/></g><rect x="525.21" y="248.79" width="27.64" height="27.64" fill="#fccedd"/><polygon points="525.21,248.79 552.85,248.79 525.21,276.43" fill="#fddee8"/><rect x="552.86" y="221.14" width="55.29" height="55.29" fill="#f699b7"/><g transform="translate(552.86,221.14) scale(2.7645) rotate(0)"><path d="M10 0L20 10L10 20L0 10L10 0Z" fill="#fbd0de"/></g><rect x="0" y="276.42857142857144" width="55.285714285714285" height="55.285714285714285" fill="#fee3ec"/><rect x="0" y="276.43" width="27.64" height="27.64" fill="#f7a5c0"/><g transform="translate(0,276.43) scale(1.3820000000000001) rotate(0)"><path d="M5 0H10L5 5L0 10V5L5 0Z" fill="#fbc7d8"/><path d="M20 15V20H15L20 15Z" fill="#fbc7d8"/><path d="M20 5V10L15 15L10 20H5L20 5Z" fill="#fbc7d8"/><path d="M15 0H20L5 15.0002L0 20.0002V15.0002L15 0Z" fill="#fbc7d8"/></g><rect x="27.64" y="276.43" width="27.64" height="27.64" fill="#f385a8"/><g transform="translate(27.64,276.43) scale(1.3820000000000001) rotate(0)"><rect width="20" height="10" fill="#fcd7e3"/></g><rect x="0" y="304.07" width="27.64" height="27.64" fill="#f27ca2"/><g transform="translate(0,304.07) scale(1.3820000000000001) rotate(0)"><path d="M10 1L12.2451 7.90983H19.5106L13.6327 12.1803L15.8779 19.0902L10 14.8197L4.12215 19.0902L6.36729 12.1803L0.489441 7.90983H7.75487L10 1Z" fill="#fbb2c9"/></g><rect x="27.64" y="304.07" width="27.64" height="27.64" fill="#f27ba1"/><g transform="translate(27.64,304.07) scale(1.3820000000000001) rotate(0)"><rect width="2" height="20" fill="#fcd5e1"/><rect x="4" width="2" height="20" fill="#fcd5e1"/><rect x="8" width="2" height="20" fill="#fcd5e1"/><rect x="12" width="2" height="20" fill="#fcd5e1"/><rect x="16" width="2" height="20" fill="#fcd5e1"/></g><rect x="55.285714285714285" y="276.42857142857144" width="55.285714285714285" height="55.285714285714285" fill="#fee3ec"/><rect x="55.29" y="276.43" width="27.64" height="27.64" fill="#f9c6d6"/><g transform="translate(55.29,276.43) scale(1.3820000000000001) rotate(0)"><path fill-rule="evenodd" clip-rule="evenodd" d="M10 20C15.5228 20 20 15.5228 20 10C20 4.47715 15.5228 0 10 0C4.47715 0 0 4.47715 0 10C0 15.5228 4.47715 20 10 20ZM10 17C13.866 17 17 13.866 17 10C17 6.13401 13.866 3 10 3C6.13401 3 3 6.13401 3 10C3 13.866 6.13401 17 10 17Z" fill="#f58faf"/></g><rect x="82.93" y="276.43" width="27.64" height="27.64" fill="#fee2eb"/><g transform="translate(82.93,276.43) scale(1.3820000000000001) rotate(0)"><rect width="2" height="20" fill="#fac8d8"/><rect x="4" width="2" height="20" fill="#fac8d8"/><rect x="8" width="2" height="20" fill="#fac8d8"/><rect x="12" width="2" height="20" fill="#fac8d8"/><rect x="16" width="2" height="20" fill="#fac8d8"/></g><rect x="55.29" y="304.07" width="27.64" height="27.64" fill="#fcd7e3"/><rect x="55.29" y="304.07" width="27.64" height="27.64" fill="#f99fbb"/><rect x="82.93" y="304.07" width="27.64" height="27.64" fill="#fcd6e2"/><rect x="82.93" y="304.07" width="27.64" height="27.64" fill="#fbd3e0"/><rect x="110.57" y="276.43" width="55.29" height="55.29" fill="#f9c5d5"/><rect x="110.57" y="276.43" width="55.29" height="55.29" fill="#fdd6e3"/><rect x="165.85714285714286" y="276.42857142857144" width="55.285714285714285" height="55.285714285714285" fill="#fee3ec"/><rect x="165.86" y="276.43" width="27.64" height="27.64" fill="#fbd2df"/><polygon points="165.86,276.43 193.5,276.43 193.5,304.07" fill="#fddbe6"/><rect x="193.5" y="276.43" width="27.64" height="27.64" fill="#fee0ea"/><polygon points="221.14,276.43 221.14,304.07 193.5,304.07" fill="#fcd8e3"/><rect x="165.86" y="304.07" width="27.64" height="27.64" fill="#f9c7d7"/><g transform="translate(165.86,304.07) scale(1.3820000000000001) rotate(0)"><path d="M19.9981 0.00193429L3.72652 -7.68637e-07L8.4784 4.75382L0 13.2345L6.76585 20L15.2462 11.5208L20 16.2746L19.9981 0.00193429Z" fill="#fee3ec"/></g><rect x="193.5" y="304.07" width="27.64" height="27.64" fill="#fbd0dd"/><g transform="translate(193.5,304.07) scale(1.3820000000000001) rotate(0)"><path d="M10 0L20 10L10 20L0 10L10 0Z" fill="#fbb3ca"/></g><rect x="221.14" y="276.43" width="55.29" height="55.29" fill="#fcd0de"/><g transform="translate(221.14,276.43) scale(2.7645) rotate(0)"><path d="M10 5L5 0L0 5L5 10L0 15L5 20L10 15L15 20L20 15L15 10L20 5L15 0L10 5Z" fill="#fbb0c8"/></g><rect x="276.43" y="276.43" width="55.29" height="55.29" fill="#fbb7cc"/><g transform="translate(276.43,276.43) scale(2.7645) rotate(0)"><path d="M10 1L12.2451 7.90983H19.5106L13.6327 12.1803L15.8779 19.0902L10 14.8197L4.12215 19.0902L6.36729 12.1803L0.489441 7.90983H7.75487L10 1Z" fill="#f489ab"/></g><rect x="331.7142857142857" y="276.42857142857144" width="55.285714285714285" height="55.285714285714285" fill="#fee3ec"/><rect x="331.71" y="276.43" width="27.64" height="27.64" fill="#f8b0c7"/><g transform="translate(331.71,276.43) scale(1.3820000000000001) rotate(0)"><path d="M10 0H20V10L10 20H0V10L10 0Z" fill="#fdd3e1"/></g><rect x="359.36" y="276.43" width="27.64" height="27.64" fill="#fbd1de"/><rect x="359.36" y="276.43" width="27.64" height="27.64" fill="#fbd2df"/><rect x="331.71" y="304.07" width="27.64" height="27.64" fill="#fcdae5"/><g transform="translate(331.71,304.07) scale(1.3820000000000001) rotate(0)"><path d="M10 0H20L0 20V10L10 0Z" fill="#fedde8"/><path d="M20 10V20H10L20 10Z" fill="#fedde8"/></g><rect x="359.36" y="304.07" width="27.64" height="27.64" fill="#fee1eb"/><g transform="translate(359.36,304.07) scale(1.3820000000000001) rotate(0)"><path fill-rule="evenodd" clip-rule="evenodd" d="M10 20C15.5228 20 20 15.5228 20 10C20 4.47715 15.5228 0 10 0C4.47715 0 0 4.47715 0 10C0 15.5228 4.47715 20 10 20ZM10 17C13.866 17 17 13.866 17 10C17 6.13401 13.866 3 10 3C6.13401 3 3 6.13401 3 10C3 13.866 6.13401 17 10 17Z" fill="#fdd7e3"/></g><rect x="387" y="276.43" width="55.29" height="55.29" fill="#fcbfd2"/><g transform="translate(387,276.43) scale(2.7645) rotate(0)"><rect width="20" height="10" fill="#f7a2bd"/></g><rect x="442.29" y="276.43" width="55.29" height="55.29" fill="#fdd5e2"/><g transform="translate(442.29,276.43) scale(2.7645) rotate(0)"><path d="M19.9981 0.00193429L3.72652 -7.68637e-07L8.4784 4.75382L0 13.2345L6.76585 20L15.2462 11.5208L20 16.2746L19.9981 0.00193429Z" fill="#fcd3e0"/></g><rect x="497.57142857142856" y="276.42857142857144" width="55.285714285714285" height="55.285714285714285" fill="#fee3ec"/><rect x="497.57" y="276.43" width="27.64" height="27.64" fill="#f8abc3"/><g transform="translate(497.57,276.43) scale(1.3820000000000001) rotate(0)"><rect width="20" height="2" fill="#f69ab8"/><rect y="4" width="20" height="2" fill="#f69ab8"/><rect y="8" width="20" height="2" fill="#f69ab8"/><rect y="12" width="20" height="2" fill="#f69ab8"/><rect y="16" width="20" height="2" fill="#f69ab8"/></g><rect x="525.21" y="276.43" width="27.64" height="27.64" fill="#fcd0de"/><g transform="translate(525.21,276.43) scale(1.3820000000000001) rotate(0)"><path d="M19.9981 0.00193429L3.72652 -7.68637e-07L8.4784 4.75382L0 13.2345L6.76585 20L15.2462 11.5208L20 16.2746L19.9981 0.00193429Z" fill="#fcd7e3"/></g><rect x="497.57" y="304.07" width="27.64" height="27.64" fill="#fcd4e1"/><path d="M 497.57 331.71 A 27.64 27.64 0 0 1  525.21 304.07 L 497.57 331.71 A 27.64 27.64 0 0 0 525.21 304.07" fill="#fcc3d5"/><rect x="525.21" y="304.07" width="27.64" height="27.64" fill="#fac9d8"/><g transform="translate(525.21,304.07) scale(1.3820000000000001) rotate(0)"><rect width="20" height="2" fill="#fcd7e3"/><rect y="4" width="20" height="2" fill="#fcd7e3"/><rect y="8" width="20" height="2" fill="#fcd7e3"/><rect y="12" width="20" height="2" fill="#fcd7e3"/><rect y="16" width="20" height="2" fill="#fcd7e3"/></g><rect x="552.86" y="276.43" width="55.29" height="55.29" fill="#fddbe6"/><path d="M 552.86 331.72 A 55.29 55.29 0 0 1  608.15 276.43 L 552.86 331.72 A 55.29 55.29 0 0 0 608.15 276.43" fill="#f69ebb"/><rect x="0" y="331.71" width="55.29" height="55.29" fill="#f8aec6"/><g transform="translate(0,331.71) scale(2.7645) rotate(0)"><rect width="20" height="10" fill="#fdd0df"/></g><rect x="55.285714285714285" y="331.7142857142857" width="55.285714285714285" height="55.285714285714285" fill="#fee3ec"/><rect x="55.29" y="331.71" width="27.64" height="27.64" fill="#fdd1df"/><g transform="translate(55.29,331.71) scale(1.3820000000000001) rotate(0)"><path d="M13 0H20V7L7 20H0V13L13 0Z" fill="#f99dba"/></g><rect x="82.93" y="331.71" width="27.64" height="27.64" fill="#fddbe6"/><circle cx="96.75" cy="345.53" r="13.82" fill="#f380a5"/><rect x="55.29" y="359.36" width="27.64" height="27.64" fill="#fbd1de"/><g transform="translate(55.29,359.36) scale(1.3820000000000001) rotate(0)"><rect width="20" height="2" fill="#fdd8e4"/><rect y="4" width="20" height="2" fill="#fdd8e4"/><rect y="8" width="20" height="2" fill="#fdd8e4"/><rect y="12" width="20" height="2" fill="#fdd8e4"/><rect y="16" width="20" height="2" fill="#fdd8e4"/></g><rect x="82.93" y="359.36" width="27.64" height="27.64" fill="#fbd3e0"/><g transform="translate(82.93,359.36) scale(1.3820000000000001) rotate(0)"><rect width="20" height="10" fill="#fbb9ce"/></g><rect x="110.57142857142857" y="331.7142857142857" width="55.285714285714285" height="55.285714285714285" fill="#fee3ec"/><rect x="110.57" y="331.71" width="27.64" height="27.64" fill="#fcc6d7"/><g transform="translate(110.57,331.71) scale(1.3820000000000001) rotate(0)"><path d="M5 0H10L5 5L0 10V5L5 0Z" fill="#f486a9"/><path d="M20 15V20H15L20 15Z" fill="#f486a9"/><path d="M20 5V10L15 15L10 20H5L20 5Z" fill="#f486a9"/><path d="M15 0H20L5 15.0002L0 20.0002V15.0002L15 0Z" fill="#f486a9"/></g><rect x="138.21" y="331.71" width="27.64" height="27.64" fill="#fabed2"/><g transform="translate(138.21,331.71) scale(1.3820000000000001) rotate(0)"><path d="M5 0H10L5 5L0 10V5L5 0Z" fill="#fee3ec"/><path d="M20 15V20H15L20 15Z" fill="#fee3ec"/><path d="M20 5V10L15 15L10 20H5L20 5Z" fill="#fee3ec"/><path d="M15 0H20L5 15.0002L0 20.0002V15.0002L15 0Z" fill="#fee3ec"/></g><rect x="110.57" y="359.36" width="27.64" height="27.64" fill="#fbcada"/><g transform="translate(110.57,359.36) scale(1.3820000000000001) rotate(0)"><path d="M10 0L20 10L10 20L0 10L10 0Z" fill="#fddbe6"/></g><rect x="138.21" y="359.36" width="27.64" height="27.64" fill="#f48cad"/><g transform="translate(138.21,359.36) scale(1.3820000000000001) rotate(0)"><path d="M10 0H20V10L10 20H0V10L10 0Z" fill="#fbc4d6"/></g><rect x="165.86" y="331.71" width="55.29" height="55.29" fill="#fbd1de"/><g transform="translate(165.86,331.71) scale(2.7645) rotate(0)"><path d="M10 0H20V10L10 20H0V10L10 0Z" fill="#fdcfdd"/></g><rect x="221.14285714285714" y="331.7142857142857" width="55.285714285714285" height="55.285714285714285" fill="#fee3ec"/><rect x="221.14" y="331.71" width="27.64" height="27.64" fill="#fddde7"/><g transform="translate(221.14,331.71) scale(1.3820000000000001) rotate(0)"><path d="M19.9981 0.00193429L3.72652 -7.68637e-07L8.4784 4.75382L0 13.2345L6.76585 20L15.2462 11.5208L20 16.2746L19.9981 0.00193429Z" fill="#fbc8d8"/></g><rect x="248.79" y="331.71" width="27.64" height="27.64" fill="#fcccdb"/><g transform="translate(248.79,331.71) scale(1.3820000000000001) rotate(0)"><path d="M19.9981 0.00193429L3.72652 -7.68637e-07L8.4784 4.75382L0 13.2345L6.76585 20L15.2462 11.5208L20 16.2746L19.9981 0.00193429Z" fill="#fcd5e2"/></g><rect x="221.14" y="359.36" width="27.64" height="27.64" fill="#facbd9"/><g transform="translate(221.14,359.36) scale(1.3820000000000001) rotate(0)"><rect width="20" height="10" fill="#fabdd0"/></g><rect x="248.79" y="359.36" width="27.64" height="27.64" fill="#fac9d8"/><g transform="translate(248.79,359.36) scale(1.3820000000000001) rotate(0)"><path d="M10 0H20L0 20V10L10 0Z" fill="#f7a6c0"/><path d="M20 10V20H10L20 10Z" fill="#f7a6c0"/></g><rect x="276.42857142857144" y="331.7142857142857" width="55.285714285714285" height="55.285714285714285" fill="#fee3ec"/><rect x="276.43" y="331.71" width="27.64" height="27.64" fill="#f595b4"/><g transform="translate(276.43,331.71) scale(1.3820000000000001) rotate(0)"><path d="M10 0H20V10L10 20H0V10L10 0Z" fill="#f99cb9"/></g><rect x="304.07" y="331.71" width="27.64" height="27.64" fill="#f9c8d7"/><g transform="translate(304.07,331.71) scale(1.3820000000000001) rotate(0)"><rect width="20" height="2" fill="#f9b3ca"/><rect y="4" width="20" height="2" fill="#f9b3ca"/><rect y="8" width="20" height="2" fill="#f9b3ca"/><rect y="12" width="20" height="2" fill="#f9b3ca"/><rect y="16" width="20" height="2" fill="#f9b3ca"/></g><rect x="276.43" y="359.36" width="27.64" height="27.64" fill="#fcbfd2"/><g transform="translate(276.43,359.36) scale(1.3820000000000001) rotate(0)"><path d="M10 1L12.2451 7.90983H19.5106L13.6327 12.1803L15.8779 19.0902L10 14.8197L4.12215 19.0902L6.36729 12.1803L0.489441 7.90983H7.75487L10 1Z" fill="#fcd5e1"/></g><rect x="304.07" y="359.36" width="27.64" height="27.64" fill="#fddde7"/><g transform="translate(304.07,359.36) scale(1.3820000000000001) rotate(0)"><path fill-rule="evenodd" clip-rule="evenodd" d="M10 20C15.5228 20 20 15.5228 20 10C20 4.47715 15.5228 0 10 0C4.47715 0 0 4.47715 0 10C0 15.5228 4.47715 20 10 20ZM10 17C13.866 17 17 13.866 17 10C17 6.13401 13.866 3 10 3C6.13401 3 3 6.13401 3 10C3 13.866 6.13401 17 10 17Z" fill="#fbbcd0"/></g><rect x="331.71" y="331.71" width="55.29" height="55.29" fill="#facddb"/><g transform="translate(331.71,331.71) scale(2.7645) rotate(0)"><path d="M19.9981 0.00193429L3.72652 -7.68637e-07L8.4784 4.75382L0 13.2345L6.76585 20L15.2462 11.5208L20 16.2746L19.9981 0.00193429Z" fill="#fee0ea"/></g><rect x="387" y="331.7142857142857" width="55.285714285714285" height="55.285714285714285" fill="#fee3ec"/><rect x="387" y="331.71" width="27.64" height="27.64" fill="#fcd0de"/><g transform="translate(387,331.71) scale(1.3820000000000001) rotate(0)"><rect width="20" height="10" fill="#fcd6e2"/></g><rect x="414.64" y="331.71" width="27.64" height="27.64" fill="#fcc4d6"/><g transform="translate(414.64,331.71) scale(1.3820000000000001) rotate(0)"><path d="M5 0H10L5 5L0 10V5L5 0Z" fill="#fdcedd"/><path d="M20 15V20H15L20 15Z" fill="#fdcedd"/><path d="M20 5V10L15 15L10 20H5L20 5Z" fill="#fdcedd"/><path d="M15 0H20L5 15.0002L0 20.0002V15.0002L15 0Z" fill="#fdcedd"/></g><rect x="387" y="359.36" width="27.64" height="27.64" fill="#f591b1"/><g transform="translate(387,359.36) scale(1.3820000000000001) rotate(0)"><path d="M10 0H20V10L10 20H0V10L10 0Z" fill="#fcd8e3"/></g><rect x="414.64" y="359.36" width="27.64" height="27.64" fill="#fabbcf"/><circle cx="428.46" cy="373.18" r="13.82" fill="#fee0ea"/><rect x="442.2857142857143" y="331.7142857142857" width="55.285714285714285" height="55.285714285714285" fill="#fee3ec"/><rect x="442.29" y="331.71" width="27.64" height="27.64" fill="#fddce7"/><g transform="translate(442.29,331.71) scale(1.3820000000000001) rotate(0)"><path d="M5 0H10L5 5L0 10V5L5 0Z" fill="#fcd7e3"/><path d="M20 15V20H15L20 15Z" fill="#fcd7e3"/><path d="M20 5V10L15 15L10 20H5L20 5Z" fill="#fcd7e3"/><path d="M15 0H20L5 15.0002L0 20.0002V15.0002L15 0Z" fill="#fcd7e3"/></g><rect x="469.93" y="331.71" width="27.64" height="27.64" fill="#fcc5d7"/><polygon points="469.93,331.71 497.57,359.34999999999997 469.93,359.34999999999997" fill="#f27ca2"/><rect x="442.29" y="359.36" width="27.64" height="27.64" fill="#fcd6e2"/><g transform="translate(442.29,359.36) scale(1.3820000000000001) rotate(0)"><path d="M10 0H20L0 20V10L10 0Z" fill="#fee2eb"/><path d="M20 10V20H10L20 10Z" fill="#fee2eb"/></g><rect x="469.93" y="359.36" width="27.64" height="27.64" fill="#f8adc5"/><g transform="translate(469.93,359.36) scale(1.3820000000000001) rotate(0)"><rect width="2" height="20" fill="#f37fa4"/><rect x="4" width="2" height="20" fill="#f37fa4"/><rect x="8" width="2" height="20" fill="#f37fa4"/><rect x="12" width="2" height="20" fill="#f37fa4"/><rect x="16" width="2" height="20" fill="#f37fa4"/></g><rect x="497.57" y="331.71" width="55.29" height="55.29" fill="#fcc0d3"/><g transform="translate(497.57,331.71) scale(2.7645) rotate(0)"><path d="M5 0H10L5 5L0 10V5L5 0Z" fill="#fbd2df"/><path d="M20 15V20H15L20 15Z" fill="#fbd2df"/><path d="M20 5V10L15 15L10 20H5L20 5Z" fill="#fbd2df"/><path d="M15 0H20L5 15.0002L0 20.0002V15.0002L15 0Z" fill="#fbd2df"/></g><rect x="552.8571428571429" y="331.7142857142857" width="55.285714285714285" height="55.285714285714285" fill="#fee3ec"/><rect x="552.86" y="331.71" width="27.64" height="27.64" fill="#f9b8cd"/><circle cx="566.6800000000001" cy="345.53" r="13.82" fill="#f8b1c8"/><rect x="580.5" y="331.71" width="27.64" height="27.64" fill="#f592b1"/><path d="M 580.5 359.34999999999997 A 27.64 27.64 0 0 1  608.14 331.71 L 580.5 359.34999999999997 A 27.64 27.64 0 0 0 608.14 331.71" fill="#f27ba1"/><rect x="552.86" y="359.36" width="27.64" height="27.64" fill="#f382a6"/><rect x="552.86" y="359.36" width="27.64" height="27.64" fill="#fcd7e3"/><rect x="580.5" y="359.36" width="27.64" height="27.64" fill="#fee1ea"/><polygon points="580.5,359.36 608.14,359.36 580.5,387" fill="#fee1eb"/></g></svg>