<?xml version="1.0" standalone="no"?><svg xmlns="http://www.w3.org/2000/svg" viewBox="0 0 1440 320"><path fill="#f9c5d5" fill-opacity="1" d="M0,160L18.5,160C36.9,160,74,160,111,144C147.7,128,185,96,222,101.3C258.5,107,295,149,332,176C369.2,203,406,213,443,197.3C480,181,517,139,554,144C590.8,149,628,203,665,218.7C701.5,235,738,213,775,181.3C812.3,149,849,107,886,128C923.1,149,960,235,997,234.7C1033.8,235,1071,149,1108,144C1144.6,139,1182,213,1218,250.7C1255.4,288,1292,288,1329,272C1366.2,256,1403,224,1422,208L1440,192L1440,0L1421.5,0C1403.1,0,1366,0,1329,0C1292.3,0,1255,0,1218,0C1181.5,0,1145,0,1108,0C1070.8,0,1034,0,997,0C960,0,923,0,886,0C849.2,0,812,0,775,0C738.5,0,702,0,665,0C627.7,0,591,0,554,0C516.9,0,480,0,443,0C406.2,0,369,0,332,0C295.4,0,258,0,222,0C184.6,0,148,0,111,0C73.8,0,37,0,18,0L0,0Z"></path></svg>