<?xml version="1.0" standalone="no"?><svg xmlns="http://www.w3.org/2000/svg" viewBox="0 0 1440 320"><path fill="#f2789f" fill-opacity="1" d="M0,192L17.1,170.7C34.3,149,69,107,103,106.7C137.1,107,171,149,206,181.3C240,213,274,235,309,213.3C342.9,192,377,128,411,106.7C445.7,85,480,107,514,138.7C548.6,171,583,213,617,208C651.4,203,686,149,720,149.3C754.3,149,789,203,823,218.7C857.1,235,891,213,926,186.7C960,160,994,128,1029,117.3C1062.9,107,1097,117,1131,144C1165.7,171,1200,213,1234,229.3C1268.6,245,1303,235,1337,234.7C1371.4,235,1406,245,1423,250.7L1440,256L1440,0L1422.9,0C1405.7,0,1371,0,1337,0C1302.9,0,1269,0,1234,0C1200,0,1166,0,1131,0C1097.1,0,1063,0,1029,0C994.3,0,960,0,926,0C891.4,0,857,0,823,0C788.6,0,754,0,720,0C685.7,0,651,0,617,0C582.9,0,549,0,514,0C480,0,446,0,411,0C377.1,0,343,0,309,0C274.3,0,240,0,206,0C171.4,0,137,0,103,0C68.6,0,34,0,17,0L0,0Z"></path></svg>