<?xml version="1.0" standalone="no"?><svg xmlns="http://www.w3.org/2000/svg" viewBox="0 0 1440 320"><path fill="#f9c5d5" fill-opacity="1" d="M0,96L21.8,122.7C43.6,149,87,203,131,224C174.5,245,218,235,262,208C305.5,181,349,139,393,154.7C436.4,171,480,245,524,266.7C567.3,288,611,256,655,213.3C698.2,171,742,117,785,96C829.1,75,873,85,916,122.7C960,160,1004,224,1047,213.3C1090.9,203,1135,117,1178,96C1221.8,75,1265,117,1309,122.7C1352.7,128,1396,96,1418,80L1440,64L1440,320L1418.2,320C1396.4,320,1353,320,1309,320C1265.5,320,1222,320,1178,320C1134.5,320,1091,320,1047,320C1003.6,320,960,320,916,320C872.7,320,829,320,785,320C741.8,320,698,320,655,320C610.9,320,567,320,524,320C480,320,436,320,393,320C349.1,320,305,320,262,320C218.2,320,175,320,131,320C87.3,320,44,320,22,320L0,320Z"></path></svg>